<?xml version="1.0" encoding="utf-8" standalone="no"?>
<!DOCTYPE svg PUBLIC "-//W3C//DTD SVG 1.1//EN"
  "http://www.w3.org/Graphics/SVG/1.1/DTD/svg11.dtd">
<!-- Created with matplotlib (https://matplotlib.org/) -->
<svg height="288pt" version="1.1" viewBox="0 0 864 288" width="864pt" xmlns="http://www.w3.org/2000/svg" xmlns:xlink="http://www.w3.org/1999/xlink">
 <defs>
  <style type="text/css">
*{stroke-linecap:butt;stroke-linejoin:round;}
  </style>
 </defs>
 <g id="figure_1">
  <g id="patch_1">
   <path d="M 0 288 
L 864 288 
L 864 0 
L 0 0 
z
" style="fill:#ffffff;"/>
  </g>
  <g id="axes_1">
   <g id="patch_2">
    <path d="M 49.55 249.7 
L 426.35 249.7 
L 426.35 19.8 
L 49.55 19.8 
z
" style="fill:#ffffff;"/>
   </g>
   <g id="matplotlib.axis_1">
    <g id="xtick_1">
     <g id="text_1">
      <!-- −10 -->
      <defs>
       <path d="M 10.59375 35.5 
L 73.1875 35.5 
L 73.1875 27.203125 
L 10.59375 27.203125 
z
" id="DejaVuSans-8722"/>
       <path d="M 12.40625 8.296875 
L 28.515625 8.296875 
L 28.515625 63.921875 
L 10.984375 60.40625 
L 10.984375 69.390625 
L 28.421875 72.90625 
L 38.28125 72.90625 
L 38.28125 8.296875 
L 54.390625 8.296875 
L 54.390625 0 
L 12.40625 0 
z
" id="DejaVuSans-49"/>
       <path d="M 31.78125 66.40625 
Q 24.171875 66.40625 20.328125 58.90625 
Q 16.5 51.421875 16.5 36.375 
Q 16.5 21.390625 20.328125 13.890625 
Q 24.171875 6.390625 31.78125 6.390625 
Q 39.453125 6.390625 43.28125 13.890625 
Q 47.125 21.390625 47.125 36.375 
Q 47.125 51.421875 43.28125 58.90625 
Q 39.453125 66.40625 31.78125 66.40625 
z
M 31.78125 74.21875 
Q 44.046875 74.21875 50.515625 64.515625 
Q 56.984375 54.828125 56.984375 36.375 
Q 56.984375 17.96875 50.515625 8.265625 
Q 44.046875 -1.421875 31.78125 -1.421875 
Q 19.53125 -1.421875 13.0625 8.265625 
Q 6.59375 17.96875 6.59375 36.375 
Q 6.59375 54.828125 13.0625 64.515625 
Q 19.53125 74.21875 31.78125 74.21875 
z
" id="DejaVuSans-48"/>
      </defs>
      <g style="fill:#262626;" transform="translate(32.138633 274.737422)scale(0.165 -0.165)">
       <use xlink:href="#DejaVuSans-8722"/>
       <use x="83.789062" xlink:href="#DejaVuSans-49"/>
       <use x="147.412109" xlink:href="#DejaVuSans-48"/>
      </g>
     </g>
    </g>
    <g id="xtick_2">
     <g id="text_2">
      <!-- −5 -->
      <defs>
       <path d="M 10.796875 72.90625 
L 49.515625 72.90625 
L 49.515625 64.59375 
L 19.828125 64.59375 
L 19.828125 46.734375 
Q 21.96875 47.46875 24.109375 47.828125 
Q 26.265625 48.1875 28.421875 48.1875 
Q 40.625 48.1875 47.75 41.5 
Q 54.890625 34.8125 54.890625 23.390625 
Q 54.890625 11.625 47.5625 5.09375 
Q 40.234375 -1.421875 26.90625 -1.421875 
Q 22.3125 -1.421875 17.546875 -0.640625 
Q 12.796875 0.140625 7.71875 1.703125 
L 7.71875 11.625 
Q 12.109375 9.234375 16.796875 8.0625 
Q 21.484375 6.890625 26.703125 6.890625 
Q 35.15625 6.890625 40.078125 11.328125 
Q 45.015625 15.765625 45.015625 23.390625 
Q 45.015625 31 40.078125 35.4375 
Q 35.15625 39.890625 26.703125 39.890625 
Q 22.75 39.890625 18.8125 39.015625 
Q 14.890625 38.140625 10.796875 36.28125 
z
" id="DejaVuSans-53"/>
      </defs>
      <g style="fill:#262626;" transform="translate(136.54559 274.737422)scale(0.165 -0.165)">
       <use xlink:href="#DejaVuSans-8722"/>
       <use x="83.789062" xlink:href="#DejaVuSans-53"/>
      </g>
     </g>
    </g>
    <g id="xtick_3">
     <g id="text_3">
      <!-- 0 -->
      <g style="fill:#262626;" transform="translate(242.616727 274.737422)scale(0.165 -0.165)">
       <use xlink:href="#DejaVuSans-48"/>
      </g>
     </g>
    </g>
    <g id="xtick_4">
     <g id="text_4">
      <!-- 5 -->
      <g style="fill:#262626;" transform="translate(341.774622 274.737422)scale(0.165 -0.165)">
       <use xlink:href="#DejaVuSans-53"/>
      </g>
     </g>
    </g>
    <g id="text_5">
     <!-- relative trial number -->
     <defs>
      <path d="M 41.109375 46.296875 
Q 39.59375 47.171875 37.8125 47.578125 
Q 36.03125 48 33.890625 48 
Q 26.265625 48 22.1875 43.046875 
Q 18.109375 38.09375 18.109375 28.8125 
L 18.109375 0 
L 9.078125 0 
L 9.078125 54.6875 
L 18.109375 54.6875 
L 18.109375 46.1875 
Q 20.953125 51.171875 25.484375 53.578125 
Q 30.03125 56 36.53125 56 
Q 37.453125 56 38.578125 55.875 
Q 39.703125 55.765625 41.0625 55.515625 
z
" id="DejaVuSans-114"/>
      <path d="M 56.203125 29.59375 
L 56.203125 25.203125 
L 14.890625 25.203125 
Q 15.484375 15.921875 20.484375 11.0625 
Q 25.484375 6.203125 34.421875 6.203125 
Q 39.59375 6.203125 44.453125 7.46875 
Q 49.3125 8.734375 54.109375 11.28125 
L 54.109375 2.78125 
Q 49.265625 0.734375 44.1875 -0.34375 
Q 39.109375 -1.421875 33.890625 -1.421875 
Q 20.796875 -1.421875 13.15625 6.1875 
Q 5.515625 13.8125 5.515625 26.8125 
Q 5.515625 40.234375 12.765625 48.109375 
Q 20.015625 56 32.328125 56 
Q 43.359375 56 49.78125 48.890625 
Q 56.203125 41.796875 56.203125 29.59375 
z
M 47.21875 32.234375 
Q 47.125 39.59375 43.09375 43.984375 
Q 39.0625 48.390625 32.421875 48.390625 
Q 24.90625 48.390625 20.390625 44.140625 
Q 15.875 39.890625 15.1875 32.171875 
z
" id="DejaVuSans-101"/>
      <path d="M 9.421875 75.984375 
L 18.40625 75.984375 
L 18.40625 0 
L 9.421875 0 
z
" id="DejaVuSans-108"/>
      <path d="M 34.28125 27.484375 
Q 23.390625 27.484375 19.1875 25 
Q 14.984375 22.515625 14.984375 16.5 
Q 14.984375 11.71875 18.140625 8.90625 
Q 21.296875 6.109375 26.703125 6.109375 
Q 34.1875 6.109375 38.703125 11.40625 
Q 43.21875 16.703125 43.21875 25.484375 
L 43.21875 27.484375 
z
M 52.203125 31.203125 
L 52.203125 0 
L 43.21875 0 
L 43.21875 8.296875 
Q 40.140625 3.328125 35.546875 0.953125 
Q 30.953125 -1.421875 24.3125 -1.421875 
Q 15.921875 -1.421875 10.953125 3.296875 
Q 6 8.015625 6 15.921875 
Q 6 25.140625 12.171875 29.828125 
Q 18.359375 34.515625 30.609375 34.515625 
L 43.21875 34.515625 
L 43.21875 35.40625 
Q 43.21875 41.609375 39.140625 45 
Q 35.0625 48.390625 27.6875 48.390625 
Q 23 48.390625 18.546875 47.265625 
Q 14.109375 46.140625 10.015625 43.890625 
L 10.015625 52.203125 
Q 14.9375 54.109375 19.578125 55.046875 
Q 24.21875 56 28.609375 56 
Q 40.484375 56 46.34375 49.84375 
Q 52.203125 43.703125 52.203125 31.203125 
z
" id="DejaVuSans-97"/>
      <path d="M 18.3125 70.21875 
L 18.3125 54.6875 
L 36.8125 54.6875 
L 36.8125 47.703125 
L 18.3125 47.703125 
L 18.3125 18.015625 
Q 18.3125 11.328125 20.140625 9.421875 
Q 21.96875 7.515625 27.59375 7.515625 
L 36.8125 7.515625 
L 36.8125 0 
L 27.59375 0 
Q 17.1875 0 13.234375 3.875 
Q 9.28125 7.765625 9.28125 18.015625 
L 9.28125 47.703125 
L 2.6875 47.703125 
L 2.6875 54.6875 
L 9.28125 54.6875 
L 9.28125 70.21875 
z
" id="DejaVuSans-116"/>
      <path d="M 9.421875 54.6875 
L 18.40625 54.6875 
L 18.40625 0 
L 9.421875 0 
z
M 9.421875 75.984375 
L 18.40625 75.984375 
L 18.40625 64.59375 
L 9.421875 64.59375 
z
" id="DejaVuSans-105"/>
      <path d="M 2.984375 54.6875 
L 12.5 54.6875 
L 29.59375 8.796875 
L 46.6875 54.6875 
L 56.203125 54.6875 
L 35.6875 0 
L 23.484375 0 
z
" id="DejaVuSans-118"/>
      <path id="DejaVuSans-32"/>
      <path d="M 54.890625 33.015625 
L 54.890625 0 
L 45.90625 0 
L 45.90625 32.71875 
Q 45.90625 40.484375 42.875 44.328125 
Q 39.84375 48.1875 33.796875 48.1875 
Q 26.515625 48.1875 22.3125 43.546875 
Q 18.109375 38.921875 18.109375 30.90625 
L 18.109375 0 
L 9.078125 0 
L 9.078125 54.6875 
L 18.109375 54.6875 
L 18.109375 46.1875 
Q 21.34375 51.125 25.703125 53.5625 
Q 30.078125 56 35.796875 56 
Q 45.21875 56 50.046875 50.171875 
Q 54.890625 44.34375 54.890625 33.015625 
z
" id="DejaVuSans-110"/>
      <path d="M 8.5 21.578125 
L 8.5 54.6875 
L 17.484375 54.6875 
L 17.484375 21.921875 
Q 17.484375 14.15625 20.5 10.265625 
Q 23.53125 6.390625 29.59375 6.390625 
Q 36.859375 6.390625 41.078125 11.03125 
Q 45.3125 15.671875 45.3125 23.6875 
L 45.3125 54.6875 
L 54.296875 54.6875 
L 54.296875 0 
L 45.3125 0 
L 45.3125 8.40625 
Q 42.046875 3.421875 37.71875 1 
Q 33.40625 -1.421875 27.6875 -1.421875 
Q 18.265625 -1.421875 13.375 4.4375 
Q 8.5 10.296875 8.5 21.578125 
z
M 31.109375 56 
z
" id="DejaVuSans-117"/>
      <path d="M 52 44.1875 
Q 55.375 50.25 60.0625 53.125 
Q 64.75 56 71.09375 56 
Q 79.640625 56 84.28125 50.015625 
Q 88.921875 44.046875 88.921875 33.015625 
L 88.921875 0 
L 79.890625 0 
L 79.890625 32.71875 
Q 79.890625 40.578125 77.09375 44.375 
Q 74.3125 48.1875 68.609375 48.1875 
Q 61.625 48.1875 57.5625 43.546875 
Q 53.515625 38.921875 53.515625 30.90625 
L 53.515625 0 
L 44.484375 0 
L 44.484375 32.71875 
Q 44.484375 40.625 41.703125 44.40625 
Q 38.921875 48.1875 33.109375 48.1875 
Q 26.21875 48.1875 22.15625 43.53125 
Q 18.109375 38.875 18.109375 30.90625 
L 18.109375 0 
L 9.078125 0 
L 9.078125 54.6875 
L 18.109375 54.6875 
L 18.109375 46.1875 
Q 21.1875 51.21875 25.484375 53.609375 
Q 29.78125 56 35.6875 56 
Q 41.65625 56 45.828125 52.96875 
Q 50 49.953125 52 44.1875 
z
" id="DejaVuSans-109"/>
      <path d="M 48.6875 27.296875 
Q 48.6875 37.203125 44.609375 42.84375 
Q 40.53125 48.484375 33.40625 48.484375 
Q 26.265625 48.484375 22.1875 42.84375 
Q 18.109375 37.203125 18.109375 27.296875 
Q 18.109375 17.390625 22.1875 11.75 
Q 26.265625 6.109375 33.40625 6.109375 
Q 40.53125 6.109375 44.609375 11.75 
Q 48.6875 17.390625 48.6875 27.296875 
z
M 18.109375 46.390625 
Q 20.953125 51.265625 25.265625 53.625 
Q 29.59375 56 35.59375 56 
Q 45.5625 56 51.78125 48.09375 
Q 58.015625 40.1875 58.015625 27.296875 
Q 58.015625 14.40625 51.78125 6.484375 
Q 45.5625 -1.421875 35.59375 -1.421875 
Q 29.59375 -1.421875 25.265625 0.953125 
Q 20.953125 3.328125 18.109375 8.203125 
L 18.109375 0 
L 9.078125 0 
L 9.078125 75.984375 
L 18.109375 75.984375 
z
" id="DejaVuSans-98"/>
     </defs>
     <g style="fill:#262626;" transform="translate(145.21625 295.846094)scale(0.18 -0.18)">
      <use xlink:href="#DejaVuSans-114"/>
      <use x="41.082031" xlink:href="#DejaVuSans-101"/>
      <use x="102.605469" xlink:href="#DejaVuSans-108"/>
      <use x="130.388672" xlink:href="#DejaVuSans-97"/>
      <use x="191.667969" xlink:href="#DejaVuSans-116"/>
      <use x="230.876953" xlink:href="#DejaVuSans-105"/>
      <use x="258.660156" xlink:href="#DejaVuSans-118"/>
      <use x="317.839844" xlink:href="#DejaVuSans-101"/>
      <use x="379.363281" xlink:href="#DejaVuSans-32"/>
      <use x="411.150391" xlink:href="#DejaVuSans-116"/>
      <use x="450.359375" xlink:href="#DejaVuSans-114"/>
      <use x="491.472656" xlink:href="#DejaVuSans-105"/>
      <use x="519.255859" xlink:href="#DejaVuSans-97"/>
      <use x="580.535156" xlink:href="#DejaVuSans-108"/>
      <use x="608.318359" xlink:href="#DejaVuSans-32"/>
      <use x="640.105469" xlink:href="#DejaVuSans-110"/>
      <use x="703.484375" xlink:href="#DejaVuSans-117"/>
      <use x="766.863281" xlink:href="#DejaVuSans-109"/>
      <use x="864.275391" xlink:href="#DejaVuSans-98"/>
      <use x="927.751953" xlink:href="#DejaVuSans-101"/>
      <use x="989.275391" xlink:href="#DejaVuSans-114"/>
     </g>
    </g>
   </g>
   <g id="matplotlib.axis_2">
    <g id="ytick_1">
     <g id="text_6">
      <!-- 0.0 -->
      <defs>
       <path d="M 10.6875 12.40625 
L 21 12.40625 
L 21 0 
L 10.6875 0 
z
" id="DejaVuSans-46"/>
      </defs>
      <g style="fill:#262626;" transform="translate(10.809844 245.518711)scale(0.165 -0.165)">
       <use xlink:href="#DejaVuSans-48"/>
       <use x="63.623047" xlink:href="#DejaVuSans-46"/>
       <use x="95.410156" xlink:href="#DejaVuSans-48"/>
      </g>
     </g>
    </g>
    <g id="ytick_2">
     <g id="text_7">
      <!-- 0.1 -->
      <g style="fill:#262626;" transform="translate(10.809844 205.669378)scale(0.165 -0.165)">
       <use xlink:href="#DejaVuSans-48"/>
       <use x="63.623047" xlink:href="#DejaVuSans-46"/>
       <use x="95.410156" xlink:href="#DejaVuSans-49"/>
      </g>
     </g>
    </g>
    <g id="ytick_3">
     <g id="text_8">
      <!-- 0.2 -->
      <defs>
       <path d="M 19.1875 8.296875 
L 53.609375 8.296875 
L 53.609375 0 
L 7.328125 0 
L 7.328125 8.296875 
Q 12.9375 14.109375 22.625 23.890625 
Q 32.328125 33.6875 34.8125 36.53125 
Q 39.546875 41.84375 41.421875 45.53125 
Q 43.3125 49.21875 43.3125 52.78125 
Q 43.3125 58.59375 39.234375 62.25 
Q 35.15625 65.921875 28.609375 65.921875 
Q 23.96875 65.921875 18.8125 64.3125 
Q 13.671875 62.703125 7.8125 59.421875 
L 7.8125 69.390625 
Q 13.765625 71.78125 18.9375 73 
Q 24.125 74.21875 28.421875 74.21875 
Q 39.75 74.21875 46.484375 68.546875 
Q 53.21875 62.890625 53.21875 53.421875 
Q 53.21875 48.921875 51.53125 44.890625 
Q 49.859375 40.875 45.40625 35.40625 
Q 44.1875 33.984375 37.640625 27.21875 
Q 31.109375 20.453125 19.1875 8.296875 
z
" id="DejaVuSans-50"/>
      </defs>
      <g style="fill:#262626;" transform="translate(10.809844 165.820044)scale(0.165 -0.165)">
       <use xlink:href="#DejaVuSans-48"/>
       <use x="63.623047" xlink:href="#DejaVuSans-46"/>
       <use x="95.410156" xlink:href="#DejaVuSans-50"/>
      </g>
     </g>
    </g>
    <g id="ytick_4">
     <g id="text_9">
      <!-- 0.3 -->
      <defs>
       <path d="M 40.578125 39.3125 
Q 47.65625 37.796875 51.625 33 
Q 55.609375 28.21875 55.609375 21.1875 
Q 55.609375 10.40625 48.1875 4.484375 
Q 40.765625 -1.421875 27.09375 -1.421875 
Q 22.515625 -1.421875 17.65625 -0.515625 
Q 12.796875 0.390625 7.625 2.203125 
L 7.625 11.71875 
Q 11.71875 9.328125 16.59375 8.109375 
Q 21.484375 6.890625 26.8125 6.890625 
Q 36.078125 6.890625 40.9375 10.546875 
Q 45.796875 14.203125 45.796875 21.1875 
Q 45.796875 27.640625 41.28125 31.265625 
Q 36.765625 34.90625 28.71875 34.90625 
L 20.21875 34.90625 
L 20.21875 43.015625 
L 29.109375 43.015625 
Q 36.375 43.015625 40.234375 45.921875 
Q 44.09375 48.828125 44.09375 54.296875 
Q 44.09375 59.90625 40.109375 62.90625 
Q 36.140625 65.921875 28.71875 65.921875 
Q 24.65625 65.921875 20.015625 65.03125 
Q 15.375 64.15625 9.8125 62.3125 
L 9.8125 71.09375 
Q 15.4375 72.65625 20.34375 73.4375 
Q 25.25 74.21875 29.59375 74.21875 
Q 40.828125 74.21875 47.359375 69.109375 
Q 53.90625 64.015625 53.90625 55.328125 
Q 53.90625 49.265625 50.4375 45.09375 
Q 46.96875 40.921875 40.578125 39.3125 
z
" id="DejaVuSans-51"/>
      </defs>
      <g style="fill:#262626;" transform="translate(10.809844 125.970711)scale(0.165 -0.165)">
       <use xlink:href="#DejaVuSans-48"/>
       <use x="63.623047" xlink:href="#DejaVuSans-46"/>
       <use x="95.410156" xlink:href="#DejaVuSans-51"/>
      </g>
     </g>
    </g>
    <g id="ytick_5">
     <g id="text_10">
      <!-- 0.4 -->
      <defs>
       <path d="M 37.796875 64.3125 
L 12.890625 25.390625 
L 37.796875 25.390625 
z
M 35.203125 72.90625 
L 47.609375 72.90625 
L 47.609375 25.390625 
L 58.015625 25.390625 
L 58.015625 17.1875 
L 47.609375 17.1875 
L 47.609375 0 
L 37.796875 0 
L 37.796875 17.1875 
L 4.890625 17.1875 
L 4.890625 26.703125 
z
" id="DejaVuSans-52"/>
      </defs>
      <g style="fill:#262626;" transform="translate(10.809844 86.121378)scale(0.165 -0.165)">
       <use xlink:href="#DejaVuSans-48"/>
       <use x="63.623047" xlink:href="#DejaVuSans-46"/>
       <use x="95.410156" xlink:href="#DejaVuSans-52"/>
      </g>
     </g>
    </g>
    <g id="ytick_6">
     <g id="text_11">
      <!-- 0.5 -->
      <g style="fill:#262626;" transform="translate(10.809844 46.272044)scale(0.165 -0.165)">
       <use xlink:href="#DejaVuSans-48"/>
       <use x="63.623047" xlink:href="#DejaVuSans-46"/>
       <use x="95.410156" xlink:href="#DejaVuSans-53"/>
      </g>
     </g>
    </g>
    <g id="text_12">
     <!-- exploration prob. -->
     <defs>
      <path d="M 54.890625 54.6875 
L 35.109375 28.078125 
L 55.90625 0 
L 45.3125 0 
L 29.390625 21.484375 
L 13.484375 0 
L 2.875 0 
L 24.125 28.609375 
L 4.6875 54.6875 
L 15.28125 54.6875 
L 29.78125 35.203125 
L 44.28125 54.6875 
z
" id="DejaVuSans-120"/>
      <path d="M 18.109375 8.203125 
L 18.109375 -20.796875 
L 9.078125 -20.796875 
L 9.078125 54.6875 
L 18.109375 54.6875 
L 18.109375 46.390625 
Q 20.953125 51.265625 25.265625 53.625 
Q 29.59375 56 35.59375 56 
Q 45.5625 56 51.78125 48.09375 
Q 58.015625 40.1875 58.015625 27.296875 
Q 58.015625 14.40625 51.78125 6.484375 
Q 45.5625 -1.421875 35.59375 -1.421875 
Q 29.59375 -1.421875 25.265625 0.953125 
Q 20.953125 3.328125 18.109375 8.203125 
z
M 48.6875 27.296875 
Q 48.6875 37.203125 44.609375 42.84375 
Q 40.53125 48.484375 33.40625 48.484375 
Q 26.265625 48.484375 22.1875 42.84375 
Q 18.109375 37.203125 18.109375 27.296875 
Q 18.109375 17.390625 22.1875 11.75 
Q 26.265625 6.109375 33.40625 6.109375 
Q 40.53125 6.109375 44.609375 11.75 
Q 48.6875 17.390625 48.6875 27.296875 
z
" id="DejaVuSans-112"/>
      <path d="M 30.609375 48.390625 
Q 23.390625 48.390625 19.1875 42.75 
Q 14.984375 37.109375 14.984375 27.296875 
Q 14.984375 17.484375 19.15625 11.84375 
Q 23.34375 6.203125 30.609375 6.203125 
Q 37.796875 6.203125 41.984375 11.859375 
Q 46.1875 17.53125 46.1875 27.296875 
Q 46.1875 37.015625 41.984375 42.703125 
Q 37.796875 48.390625 30.609375 48.390625 
z
M 30.609375 56 
Q 42.328125 56 49.015625 48.375 
Q 55.71875 40.765625 55.71875 27.296875 
Q 55.71875 13.875 49.015625 6.21875 
Q 42.328125 -1.421875 30.609375 -1.421875 
Q 18.84375 -1.421875 12.171875 6.21875 
Q 5.515625 13.875 5.515625 27.296875 
Q 5.515625 40.765625 12.171875 48.375 
Q 18.84375 56 30.609375 56 
z
" id="DejaVuSans-111"/>
     </defs>
     <g style="fill:#262626;" transform="translate(3.066406 212.140156)rotate(-90)scale(0.18 -0.18)">
      <use xlink:href="#DejaVuSans-101"/>
      <use x="61.507812" xlink:href="#DejaVuSans-120"/>
      <use x="120.6875" xlink:href="#DejaVuSans-112"/>
      <use x="184.164062" xlink:href="#DejaVuSans-108"/>
      <use x="211.947266" xlink:href="#DejaVuSans-111"/>
      <use x="273.128906" xlink:href="#DejaVuSans-114"/>
      <use x="314.242188" xlink:href="#DejaVuSans-97"/>
      <use x="375.521484" xlink:href="#DejaVuSans-116"/>
      <use x="414.730469" xlink:href="#DejaVuSans-105"/>
      <use x="442.513672" xlink:href="#DejaVuSans-111"/>
      <use x="503.695312" xlink:href="#DejaVuSans-110"/>
      <use x="567.074219" xlink:href="#DejaVuSans-32"/>
      <use x="598.861328" xlink:href="#DejaVuSans-112"/>
      <use x="662.337891" xlink:href="#DejaVuSans-114"/>
      <use x="703.419922" xlink:href="#DejaVuSans-111"/>
      <use x="764.601562" xlink:href="#DejaVuSans-98"/>
      <use x="828.078125" xlink:href="#DejaVuSans-46"/>
     </g>
    </g>
   </g>
   <g id="LineCollection_1">
    <path clip-path="url(#p5b9da1309b)" d="M 247.865789 239.25 
L 247.865789 159.551333 
" style="fill:none;stroke:#1a1a1a;stroke-dasharray:8.325,3.6;stroke-dashoffset:0;stroke-width:2.25;"/>
   </g>
   <g id="line2d_1">
    <path clip-path="url(#p5b9da1309b)" d="M 49.55 214.727333 
L 69.381579 199.400667 
L 89.213158 208.596667 
L 109.044737 190.204667 
L 128.876316 187.139333 
L 148.707895 193.27 
L 168.539474 138.094 
L 188.371053 168.747333 
L 208.202632 159.551333 
L 228.034211 171.812667 
L 247.865789 73.722 
L 267.697368 67.591333 
L 287.528947 199.400667 
L 307.360526 236.184667 
L 327.192105 239.25 
L 347.023684 230.054 
L 366.855263 233.119333 
L 386.686842 233.119333 
L 406.518421 214.727333 
L 426.35 223.923333 
" style="fill:none;stroke:#66c2a5;stroke-linecap:round;stroke-width:2.25;"/>
   </g>
   <g id="line2d_2">
    <path clip-path="url(#p5b9da1309b)" d="M 49.55 190.204667 
L 69.381579 184.074 
L 89.213158 214.727333 
L 109.044737 205.531333 
L 128.876316 162.616667 
L 148.707895 131.963333 
L 168.539474 156.486 
L 188.371053 184.074 
L 208.202632 165.682 
L 228.034211 128.898 
L 247.865789 122.767333 
L 267.697368 171.812667 
L 287.528947 128.898 
L 307.360526 199.400667 
L 327.192105 230.054 
L 347.023684 208.596667 
L 366.855263 233.119333 
L 386.686842 223.923333 
L 406.518421 220.858 
L 426.35 226.988667 
" style="fill:none;stroke:#fc8d62;stroke-linecap:round;stroke-width:2.25;"/>
   </g>
   <g id="line2d_3">
    <path clip-path="url(#p5b9da1309b)" d="M 49.55 177.943333 
L 69.381579 216.956667 
L 89.213158 180.73 
L 109.044737 228.103333 
L 128.876316 219.743333 
L 148.707895 205.81 
L 168.539474 175.156667 
L 188.371053 161.223333 
L 208.202632 214.17 
L 228.034211 144.503333 
L 247.865789 172.37 
L 267.697368 44.183333 
L 287.528947 158.436667 
L 307.360526 214.17 
L 327.192105 230.89 
L 347.023684 239.25 
L 366.855263 239.25 
L 386.686842 230.89 
L 406.518421 219.743333 
L 426.35 186.303333 
" style="fill:none;stroke:#8da0cb;stroke-linecap:round;stroke-width:2.25;"/>
   </g>
   <g id="line2d_4">
    <path clip-path="url(#p5b9da1309b)" d="M 49.55 219.743333 
L 69.381579 189.09 
L 89.213158 228.103333 
L 109.044737 144.503333 
L 128.876316 211.383333 
L 148.707895 203.023333 
L 168.539474 180.73 
L 188.371053 175.156667 
L 208.202632 203.023333 
L 228.034211 108.276667 
L 247.865789 180.73 
L 267.697368 30.25 
L 287.528947 166.796667 
L 307.360526 211.383333 
L 327.192105 236.463333 
L 347.023684 230.89 
L 366.855263 239.25 
L 386.686842 230.89 
L 406.518421 200.236667 
L 426.35 222.53 
" style="fill:none;stroke:#e78ac3;stroke-linecap:round;stroke-width:2.25;"/>
   </g>
   <g id="line2d_5">
    <path clip-path="url(#p5b9da1309b)" d="M 49.55 165.682 
L 69.381579 135.028667 
L 89.213158 177.943333 
L 109.044737 144.224667 
L 128.876316 202.466 
L 148.707895 58.395333 
L 168.539474 184.074 
L 188.371053 196.335333 
L 208.202632 141.159333 
L 228.034211 199.400667 
L 247.865789 202.466 
L 267.697368 119.702 
L 287.528947 190.204667 
L 307.360526 187.139333 
L 327.192105 217.792667 
L 347.023684 202.466 
L 366.855263 208.596667 
L 386.686842 223.923333 
L 406.518421 181.008667 
L 426.35 196.335333 
" style="fill:none;stroke:#a6d854;stroke-linecap:round;stroke-width:2.25;"/>
   </g>
   <g id="patch_3">
    <path d="M 49.55 249.7 
L 49.55 19.8 
" style="fill:none;stroke:#262626;stroke-linecap:square;stroke-linejoin:miter;stroke-width:1.875;"/>
   </g>
   <g id="patch_4">
    <path d="M 426.35 249.7 
L 426.35 19.8 
" style="fill:none;stroke:#262626;stroke-linecap:square;stroke-linejoin:miter;stroke-width:1.875;"/>
   </g>
   <g id="patch_5">
    <path d="M 49.55 249.7 
L 426.35 249.7 
" style="fill:none;stroke:#262626;stroke-linecap:square;stroke-linejoin:miter;stroke-width:1.875;"/>
   </g>
   <g id="patch_6">
    <path d="M 49.55 19.8 
L 426.35 19.8 
" style="fill:none;stroke:#262626;stroke-linecap:square;stroke-linejoin:miter;stroke-width:1.875;"/>
   </g>
   <g id="text_13">
    <!-- regular-&gt;irregular -->
    <defs>
     <path d="M 45.40625 27.984375 
Q 45.40625 37.75 41.375 43.109375 
Q 37.359375 48.484375 30.078125 48.484375 
Q 22.859375 48.484375 18.828125 43.109375 
Q 14.796875 37.75 14.796875 27.984375 
Q 14.796875 18.265625 18.828125 12.890625 
Q 22.859375 7.515625 30.078125 7.515625 
Q 37.359375 7.515625 41.375 12.890625 
Q 45.40625 18.265625 45.40625 27.984375 
z
M 54.390625 6.78125 
Q 54.390625 -7.171875 48.1875 -13.984375 
Q 42 -20.796875 29.203125 -20.796875 
Q 24.46875 -20.796875 20.265625 -20.09375 
Q 16.0625 -19.390625 12.109375 -17.921875 
L 12.109375 -9.1875 
Q 16.0625 -11.328125 19.921875 -12.34375 
Q 23.78125 -13.375 27.78125 -13.375 
Q 36.625 -13.375 41.015625 -8.765625 
Q 45.40625 -4.15625 45.40625 5.171875 
L 45.40625 9.625 
Q 42.625 4.78125 38.28125 2.390625 
Q 33.9375 0 27.875 0 
Q 17.828125 0 11.671875 7.65625 
Q 5.515625 15.328125 5.515625 27.984375 
Q 5.515625 40.671875 11.671875 48.328125 
Q 17.828125 56 27.875 56 
Q 33.9375 56 38.28125 53.609375 
Q 42.625 51.21875 45.40625 46.390625 
L 45.40625 54.6875 
L 54.390625 54.6875 
z
" id="DejaVuSans-103"/>
     <path d="M 4.890625 31.390625 
L 31.203125 31.390625 
L 31.203125 23.390625 
L 4.890625 23.390625 
z
" id="DejaVuSans-45"/>
     <path d="M 10.59375 49.21875 
L 10.59375 58.109375 
L 73.1875 35.40625 
L 73.1875 27.296875 
L 10.59375 4.59375 
L 10.59375 13.484375 
L 60.890625 31.296875 
z
" id="DejaVuSans-62"/>
    </defs>
    <g style="fill:#262626;" transform="translate(156.235625 13.8)scale(0.18 -0.18)">
     <use xlink:href="#DejaVuSans-114"/>
     <use x="41.082031" xlink:href="#DejaVuSans-101"/>
     <use x="102.605469" xlink:href="#DejaVuSans-103"/>
     <use x="166.082031" xlink:href="#DejaVuSans-117"/>
     <use x="229.460938" xlink:href="#DejaVuSans-108"/>
     <use x="257.244141" xlink:href="#DejaVuSans-97"/>
     <use x="318.523438" xlink:href="#DejaVuSans-114"/>
     <use x="359.542969" xlink:href="#DejaVuSans-45"/>
     <use x="395.626953" xlink:href="#DejaVuSans-62"/>
     <use x="479.416016" xlink:href="#DejaVuSans-105"/>
     <use x="507.199219" xlink:href="#DejaVuSans-114"/>
     <use x="548.296875" xlink:href="#DejaVuSans-114"/>
     <use x="589.378906" xlink:href="#DejaVuSans-101"/>
     <use x="650.902344" xlink:href="#DejaVuSans-103"/>
     <use x="714.378906" xlink:href="#DejaVuSans-117"/>
     <use x="777.757812" xlink:href="#DejaVuSans-108"/>
     <use x="805.541016" xlink:href="#DejaVuSans-97"/>
     <use x="866.820312" xlink:href="#DejaVuSans-114"/>
    </g>
   </g>
   <g id="legend_1">
    <g id="patch_7">
     <path d="M 351.501875 172.022656 
L 414.8 172.022656 
Q 418.1 172.022656 418.1 168.722656 
L 418.1 31.35 
Q 418.1 28.05 414.8 28.05 
L 351.501875 28.05 
Q 348.201875 28.05 348.201875 31.35 
L 348.201875 168.722656 
Q 348.201875 172.022656 351.501875 172.022656 
z
" style="fill:#ffffff;opacity:0.8;stroke:#cccccc;stroke-linejoin:miter;stroke-width:1.5;"/>
    </g>
    <g id="text_14">
     <!-- block -->
     <defs>
      <path d="M 48.78125 52.59375 
L 48.78125 44.1875 
Q 44.96875 46.296875 41.140625 47.34375 
Q 37.3125 48.390625 33.40625 48.390625 
Q 24.65625 48.390625 19.8125 42.84375 
Q 14.984375 37.3125 14.984375 27.296875 
Q 14.984375 17.28125 19.8125 11.734375 
Q 24.65625 6.203125 33.40625 6.203125 
Q 37.3125 6.203125 41.140625 7.25 
Q 44.96875 8.296875 48.78125 10.40625 
L 48.78125 2.09375 
Q 45.015625 0.34375 40.984375 -0.53125 
Q 36.96875 -1.421875 32.421875 -1.421875 
Q 20.0625 -1.421875 12.78125 6.34375 
Q 5.515625 14.109375 5.515625 27.296875 
Q 5.515625 40.671875 12.859375 48.328125 
Q 20.21875 56 33.015625 56 
Q 37.15625 56 41.109375 55.140625 
Q 45.0625 54.296875 48.78125 52.59375 
z
" id="DejaVuSans-99"/>
      <path d="M 9.078125 75.984375 
L 18.109375 75.984375 
L 18.109375 31.109375 
L 44.921875 54.6875 
L 56.390625 54.6875 
L 27.390625 29.109375 
L 57.625 0 
L 45.90625 0 
L 18.109375 26.703125 
L 18.109375 0 
L 9.078125 0 
z
" id="DejaVuSans-107"/>
     </defs>
     <g style="fill:#262626;" transform="translate(369.88375 42.248437)scale(0.1 -0.1)">
      <use xlink:href="#DejaVuSans-98"/>
      <use x="63.476562" xlink:href="#DejaVuSans-108"/>
      <use x="91.259766" xlink:href="#DejaVuSans-111"/>
      <use x="152.441406" xlink:href="#DejaVuSans-99"/>
      <use x="207.421875" xlink:href="#DejaVuSans-107"/>
     </g>
    </g>
    <g id="line2d_6">
     <path d="M 354.801875 59.340547 
L 387.801875 59.340547 
" style="fill:none;stroke:#66c2a5;stroke-linecap:round;stroke-width:2.25;"/>
    </g>
    <g id="line2d_7"/>
    <g id="text_15">
     <!-- 1 -->
     <g style="fill:#262626;" transform="translate(401.001875 65.115547)scale(0.165 -0.165)">
      <use xlink:href="#DejaVuSans-49"/>
     </g>
    </g>
    <g id="line2d_8">
     <path d="M 354.801875 83.559453 
L 387.801875 83.559453 
" style="fill:none;stroke:#fc8d62;stroke-linecap:round;stroke-width:2.25;"/>
    </g>
    <g id="line2d_9"/>
    <g id="text_16">
     <!-- 2 -->
     <g style="fill:#262626;" transform="translate(401.001875 89.334453)scale(0.165 -0.165)">
      <use xlink:href="#DejaVuSans-50"/>
     </g>
    </g>
    <g id="line2d_10">
     <path d="M 354.801875 107.778359 
L 387.801875 107.778359 
" style="fill:none;stroke:#8da0cb;stroke-linecap:round;stroke-width:2.25;"/>
    </g>
    <g id="line2d_11"/>
    <g id="text_17">
     <!-- 3 -->
     <g style="fill:#262626;" transform="translate(401.001875 113.553359)scale(0.165 -0.165)">
      <use xlink:href="#DejaVuSans-51"/>
     </g>
    </g>
    <g id="line2d_12">
     <path d="M 354.801875 131.997266 
L 387.801875 131.997266 
" style="fill:none;stroke:#e78ac3;stroke-linecap:round;stroke-width:2.25;"/>
    </g>
    <g id="line2d_13"/>
    <g id="text_18">
     <!-- 4 -->
     <g style="fill:#262626;" transform="translate(401.001875 137.772266)scale(0.165 -0.165)">
      <use xlink:href="#DejaVuSans-52"/>
     </g>
    </g>
    <g id="line2d_14">
     <path d="M 354.801875 156.216172 
L 387.801875 156.216172 
" style="fill:none;stroke:#a6d854;stroke-linecap:round;stroke-width:2.25;"/>
    </g>
    <g id="line2d_15"/>
    <g id="text_19">
     <!-- 5 -->
     <g style="fill:#262626;" transform="translate(401.001875 161.991172)scale(0.165 -0.165)">
      <use xlink:href="#DejaVuSans-53"/>
     </g>
    </g>
   </g>
  </g>
  <g id="axes_2">
   <g id="patch_8">
    <path d="M 463.3375 249.7 
L 840.1375 249.7 
L 840.1375 19.8 
L 463.3375 19.8 
z
" style="fill:#ffffff;"/>
   </g>
   <g id="matplotlib.axis_3">
    <g id="xtick_5">
     <g id="text_20">
      <!-- −10 -->
      <g style="fill:#262626;" transform="translate(445.926133 274.737422)scale(0.165 -0.165)">
       <use xlink:href="#DejaVuSans-8722"/>
       <use x="83.789062" xlink:href="#DejaVuSans-49"/>
       <use x="147.412109" xlink:href="#DejaVuSans-48"/>
      </g>
     </g>
    </g>
    <g id="xtick_6">
     <g id="text_21">
      <!-- −5 -->
      <g style="fill:#262626;" transform="translate(550.33309 274.737422)scale(0.165 -0.165)">
       <use xlink:href="#DejaVuSans-8722"/>
       <use x="83.789062" xlink:href="#DejaVuSans-53"/>
      </g>
     </g>
    </g>
    <g id="xtick_7">
     <g id="text_22">
      <!-- 0 -->
      <g style="fill:#262626;" transform="translate(656.404227 274.737422)scale(0.165 -0.165)">
       <use xlink:href="#DejaVuSans-48"/>
      </g>
     </g>
    </g>
    <g id="xtick_8">
     <g id="text_23">
      <!-- 5 -->
      <g style="fill:#262626;" transform="translate(755.562122 274.737422)scale(0.165 -0.165)">
       <use xlink:href="#DejaVuSans-53"/>
      </g>
     </g>
    </g>
    <g id="text_24">
     <!-- relative trial number -->
     <g style="fill:#262626;" transform="translate(559.00375 295.846094)scale(0.18 -0.18)">
      <use xlink:href="#DejaVuSans-114"/>
      <use x="41.082031" xlink:href="#DejaVuSans-101"/>
      <use x="102.605469" xlink:href="#DejaVuSans-108"/>
      <use x="130.388672" xlink:href="#DejaVuSans-97"/>
      <use x="191.667969" xlink:href="#DejaVuSans-116"/>
      <use x="230.876953" xlink:href="#DejaVuSans-105"/>
      <use x="258.660156" xlink:href="#DejaVuSans-118"/>
      <use x="317.839844" xlink:href="#DejaVuSans-101"/>
      <use x="379.363281" xlink:href="#DejaVuSans-32"/>
      <use x="411.150391" xlink:href="#DejaVuSans-116"/>
      <use x="450.359375" xlink:href="#DejaVuSans-114"/>
      <use x="491.472656" xlink:href="#DejaVuSans-105"/>
      <use x="519.255859" xlink:href="#DejaVuSans-97"/>
      <use x="580.535156" xlink:href="#DejaVuSans-108"/>
      <use x="608.318359" xlink:href="#DejaVuSans-32"/>
      <use x="640.105469" xlink:href="#DejaVuSans-110"/>
      <use x="703.484375" xlink:href="#DejaVuSans-117"/>
      <use x="766.863281" xlink:href="#DejaVuSans-109"/>
      <use x="864.275391" xlink:href="#DejaVuSans-98"/>
      <use x="927.751953" xlink:href="#DejaVuSans-101"/>
      <use x="989.275391" xlink:href="#DejaVuSans-114"/>
     </g>
    </g>
   </g>
   <g id="matplotlib.axis_4">
    <g id="ytick_7"/>
    <g id="ytick_8"/>
    <g id="ytick_9"/>
    <g id="ytick_10"/>
    <g id="ytick_11"/>
    <g id="ytick_12"/>
   </g>
   <g id="LineCollection_2">
    <path clip-path="url(#pc10223874e)" d="M 661.653289 239.25 
L 661.653289 159.551333 
" style="fill:none;stroke:#1a1a1a;stroke-dasharray:8.325,3.6;stroke-dashoffset:0;stroke-width:2.25;"/>
   </g>
   <g id="line2d_16">
    <path clip-path="url(#pc10223874e)" d="M 463.3375 190.204667 
L 483.169079 199.400667 
L 503.000658 171.812667 
L 522.832237 199.400667 
L 542.663816 214.727333 
L 562.495395 138.094 
L 582.326974 208.596667 
L 602.158553 193.27 
L 621.990132 196.335333 
L 641.821711 171.812667 
L 661.653289 208.596667 
L 681.484868 150.355333 
L 701.316447 190.204667 
L 721.148026 125.832667 
L 740.979605 159.551333 
L 760.811184 168.747333 
L 780.642763 190.204667 
L 800.474342 181.008667 
L 820.305921 153.420667 
L 840.1375 144.224667 
" style="fill:none;stroke:#66c2a5;stroke-linecap:round;stroke-width:2.25;"/>
   </g>
   <g id="line2d_17">
    <path clip-path="url(#pc10223874e)" d="M 463.3375 158.436667 
L 483.169079 127.783333 
L 503.000658 191.876667 
L 522.832237 127.783333 
L 542.663816 186.303333 
L 562.495395 230.89 
L 582.326974 158.436667 
L 602.158553 200.236667 
L 621.990132 169.583333 
L 641.821711 194.663333 
L 661.653289 197.45 
L 681.484868 111.063333 
L 701.316447 127.783333 
L 721.148026 152.863333 
L 740.979605 208.596667 
L 760.811184 130.57 
L 780.642763 208.596667 
L 800.474342 141.716667 
L 820.305921 191.876667 
L 840.1375 189.09 
" style="fill:none;stroke:#fc8d62;stroke-linecap:round;stroke-width:2.25;"/>
   </g>
   <g id="line2d_18">
    <path clip-path="url(#pc10223874e)" d="M 463.3375 214.727333 
L 483.169079 226.988667 
L 503.000658 165.682 
L 522.832237 190.204667 
L 542.663816 122.767333 
L 562.495395 226.988667 
L 582.326974 159.551333 
L 602.158553 135.028667 
L 621.990132 98.244667 
L 641.821711 226.988667 
L 661.653289 196.335333 
L 681.484868 165.682 
L 701.316447 122.767333 
L 721.148026 147.29 
L 740.979605 141.159333 
L 760.811184 141.159333 
L 780.642763 171.812667 
L 800.474342 184.074 
L 820.305921 116.636667 
L 840.1375 98.244667 
" style="fill:none;stroke:#8da0cb;stroke-linecap:round;stroke-width:2.25;"/>
   </g>
   <g id="line2d_19">
    <path clip-path="url(#pc10223874e)" d="M 463.3375 172.834444 
L 483.169079 165.171111 
L 503.000658 149.844444 
L 522.832237 195.824444 
L 542.663816 190.715556 
L 562.495395 183.052222 
L 582.326974 175.388889 
L 602.158553 206.042222 
L 621.990132 200.933333 
L 641.821711 147.29 
L 661.653289 175.388889 
L 681.484868 167.725556 
L 701.316447 108.973333 
L 721.148026 180.497778 
L 740.979605 121.745556 
L 760.811184 183.052222 
L 780.642763 114.082222 
L 800.474342 180.497778 
L 820.305921 188.161111 
L 840.1375 200.933333 
" style="fill:none;stroke:#e78ac3;stroke-linecap:round;stroke-width:2.25;"/>
   </g>
   <g id="line2d_20">
    <path clip-path="url(#pc10223874e)" d="M 463.3375 159.551333 
L 483.169079 202.466 
L 503.000658 150.355333 
L 522.832237 205.531333 
L 542.663816 187.139333 
L 562.495395 196.335333 
L 582.326974 150.355333 
L 602.158553 165.682 
L 621.990132 190.204667 
L 641.821711 205.531333 
L 661.653289 156.486 
L 681.484868 128.898 
L 701.316447 104.375333 
L 721.148026 150.355333 
L 740.979605 116.636667 
L 760.811184 214.727333 
L 780.642763 156.486 
L 800.474342 190.204667 
L 820.305921 171.812667 
L 840.1375 125.832667 
" style="fill:none;stroke:#a6d854;stroke-linecap:round;stroke-width:2.25;"/>
   </g>
   <g id="patch_9">
    <path d="M 463.3375 249.7 
L 463.3375 19.8 
" style="fill:none;stroke:#262626;stroke-linecap:square;stroke-linejoin:miter;stroke-width:1.875;"/>
   </g>
   <g id="patch_10">
    <path d="M 840.1375 249.7 
L 840.1375 19.8 
" style="fill:none;stroke:#262626;stroke-linecap:square;stroke-linejoin:miter;stroke-width:1.875;"/>
   </g>
   <g id="patch_11">
    <path d="M 463.3375 249.7 
L 840.1375 249.7 
" style="fill:none;stroke:#262626;stroke-linecap:square;stroke-linejoin:miter;stroke-width:1.875;"/>
   </g>
   <g id="patch_12">
    <path d="M 463.3375 19.8 
L 840.1375 19.8 
" style="fill:none;stroke:#262626;stroke-linecap:square;stroke-linejoin:miter;stroke-width:1.875;"/>
   </g>
   <g id="text_25">
    <!-- irregular-&gt;regular -->
    <g style="fill:#262626;" transform="translate(570.023125 13.8)scale(0.18 -0.18)">
     <use xlink:href="#DejaVuSans-105"/>
     <use x="27.783203" xlink:href="#DejaVuSans-114"/>
     <use x="68.880859" xlink:href="#DejaVuSans-114"/>
     <use x="109.962891" xlink:href="#DejaVuSans-101"/>
     <use x="171.486328" xlink:href="#DejaVuSans-103"/>
     <use x="234.962891" xlink:href="#DejaVuSans-117"/>
     <use x="298.341797" xlink:href="#DejaVuSans-108"/>
     <use x="326.125" xlink:href="#DejaVuSans-97"/>
     <use x="387.404297" xlink:href="#DejaVuSans-114"/>
     <use x="428.423828" xlink:href="#DejaVuSans-45"/>
     <use x="464.507812" xlink:href="#DejaVuSans-62"/>
     <use x="548.296875" xlink:href="#DejaVuSans-114"/>
     <use x="589.378906" xlink:href="#DejaVuSans-101"/>
     <use x="650.902344" xlink:href="#DejaVuSans-103"/>
     <use x="714.378906" xlink:href="#DejaVuSans-117"/>
     <use x="777.757812" xlink:href="#DejaVuSans-108"/>
     <use x="805.541016" xlink:href="#DejaVuSans-97"/>
     <use x="866.820312" xlink:href="#DejaVuSans-114"/>
    </g>
   </g>
  </g>
 </g>
 <defs>
  <clipPath id="p5b9da1309b">
   <rect height="229.9" width="376.8" x="49.55" y="19.8"/>
  </clipPath>
  <clipPath id="pc10223874e">
   <rect height="229.9" width="376.8" x="463.3375" y="19.8"/>
  </clipPath>
 </defs>
</svg>
