<?xml version="1.0" encoding="utf-8" standalone="no"?>
<!DOCTYPE svg PUBLIC "-//W3C//DTD SVG 1.1//EN"
  "http://www.w3.org/Graphics/SVG/1.1/DTD/svg11.dtd">
<!-- Created with matplotlib (https://matplotlib.org/) -->
<svg height="288pt" version="1.1" viewBox="0 0 864 288" width="864pt" xmlns="http://www.w3.org/2000/svg" xmlns:xlink="http://www.w3.org/1999/xlink">
 <defs>
  <style type="text/css">
*{stroke-linecap:butt;stroke-linejoin:round;}
  </style>
 </defs>
 <g id="figure_1">
  <g id="patch_1">
   <path d="M 0 288 
L 864 288 
L 864 0 
L 0 0 
z
" style="fill:#ffffff;"/>
  </g>
  <g id="axes_1">
   <g id="patch_2">
    <path d="M 49.55 249.7 
L 400.922222 249.7 
L 400.922222 19.8 
L 49.55 19.8 
z
" style="fill:#ffffff;"/>
   </g>
   <g id="matplotlib.axis_1">
    <g id="xtick_1">
     <g id="text_1">
      <!-- 1 -->
      <defs>
       <path d="M 12.40625 8.296875 
L 28.515625 8.296875 
L 28.515625 63.921875 
L 10.984375 60.40625 
L 10.984375 69.390625 
L 28.421875 72.90625 
L 38.28125 72.90625 
L 38.28125 8.296875 
L 54.390625 8.296875 
L 54.390625 0 
L 12.40625 0 
z
" id="DejaVuSans-49"/>
      </defs>
      <g style="fill:#262626;" transform="translate(79.43816 274.737422)scale(0.165 -0.165)">
       <use xlink:href="#DejaVuSans-49"/>
      </g>
     </g>
    </g>
    <g id="xtick_2">
     <g id="text_2">
      <!-- 2 -->
      <defs>
       <path d="M 19.1875 8.296875 
L 53.609375 8.296875 
L 53.609375 0 
L 7.328125 0 
L 7.328125 8.296875 
Q 12.9375 14.109375 22.625 23.890625 
Q 32.328125 33.6875 34.8125 36.53125 
Q 39.546875 41.84375 41.421875 45.53125 
Q 43.3125 49.21875 43.3125 52.78125 
Q 43.3125 58.59375 39.234375 62.25 
Q 35.15625 65.921875 28.609375 65.921875 
Q 23.96875 65.921875 18.8125 64.3125 
Q 13.671875 62.703125 7.8125 59.421875 
L 7.8125 69.390625 
Q 13.765625 71.78125 18.9375 73 
Q 24.125 74.21875 28.421875 74.21875 
Q 39.75 74.21875 46.484375 68.546875 
Q 53.21875 62.890625 53.21875 53.421875 
Q 53.21875 48.921875 51.53125 44.890625 
Q 49.859375 40.875 45.40625 35.40625 
Q 44.1875 33.984375 37.640625 27.21875 
Q 31.109375 20.453125 19.1875 8.296875 
z
" id="DejaVuSans-50"/>
      </defs>
      <g style="fill:#262626;" transform="translate(149.712604 274.737422)scale(0.165 -0.165)">
       <use xlink:href="#DejaVuSans-50"/>
      </g>
     </g>
    </g>
    <g id="xtick_3">
     <g id="text_3">
      <!-- 3 -->
      <defs>
       <path d="M 40.578125 39.3125 
Q 47.65625 37.796875 51.625 33 
Q 55.609375 28.21875 55.609375 21.1875 
Q 55.609375 10.40625 48.1875 4.484375 
Q 40.765625 -1.421875 27.09375 -1.421875 
Q 22.515625 -1.421875 17.65625 -0.515625 
Q 12.796875 0.390625 7.625 2.203125 
L 7.625 11.71875 
Q 11.71875 9.328125 16.59375 8.109375 
Q 21.484375 6.890625 26.8125 6.890625 
Q 36.078125 6.890625 40.9375 10.546875 
Q 45.796875 14.203125 45.796875 21.1875 
Q 45.796875 27.640625 41.28125 31.265625 
Q 36.765625 34.90625 28.71875 34.90625 
L 20.21875 34.90625 
L 20.21875 43.015625 
L 29.109375 43.015625 
Q 36.375 43.015625 40.234375 45.921875 
Q 44.09375 48.828125 44.09375 54.296875 
Q 44.09375 59.90625 40.109375 62.90625 
Q 36.140625 65.921875 28.71875 65.921875 
Q 24.65625 65.921875 20.015625 65.03125 
Q 15.375 64.15625 9.8125 62.3125 
L 9.8125 71.09375 
Q 15.4375 72.65625 20.34375 73.4375 
Q 25.25 74.21875 29.59375 74.21875 
Q 40.828125 74.21875 47.359375 69.109375 
Q 53.90625 64.015625 53.90625 55.328125 
Q 53.90625 49.265625 50.4375 45.09375 
Q 46.96875 40.921875 40.578125 39.3125 
z
" id="DejaVuSans-51"/>
      </defs>
      <g style="fill:#262626;" transform="translate(219.987049 274.737422)scale(0.165 -0.165)">
       <use xlink:href="#DejaVuSans-51"/>
      </g>
     </g>
    </g>
    <g id="xtick_4">
     <g id="text_4">
      <!-- 4 -->
      <defs>
       <path d="M 37.796875 64.3125 
L 12.890625 25.390625 
L 37.796875 25.390625 
z
M 35.203125 72.90625 
L 47.609375 72.90625 
L 47.609375 25.390625 
L 58.015625 25.390625 
L 58.015625 17.1875 
L 47.609375 17.1875 
L 47.609375 0 
L 37.796875 0 
L 37.796875 17.1875 
L 4.890625 17.1875 
L 4.890625 26.703125 
z
" id="DejaVuSans-52"/>
      </defs>
      <g style="fill:#262626;" transform="translate(290.261493 274.737422)scale(0.165 -0.165)">
       <use xlink:href="#DejaVuSans-52"/>
      </g>
     </g>
    </g>
    <g id="xtick_5">
     <g id="text_5">
      <!-- 5 -->
      <defs>
       <path d="M 10.796875 72.90625 
L 49.515625 72.90625 
L 49.515625 64.59375 
L 19.828125 64.59375 
L 19.828125 46.734375 
Q 21.96875 47.46875 24.109375 47.828125 
Q 26.265625 48.1875 28.421875 48.1875 
Q 40.625 48.1875 47.75 41.5 
Q 54.890625 34.8125 54.890625 23.390625 
Q 54.890625 11.625 47.5625 5.09375 
Q 40.234375 -1.421875 26.90625 -1.421875 
Q 22.3125 -1.421875 17.546875 -0.640625 
Q 12.796875 0.140625 7.71875 1.703125 
L 7.71875 11.625 
Q 12.109375 9.234375 16.796875 8.0625 
Q 21.484375 6.890625 26.703125 6.890625 
Q 35.15625 6.890625 40.078125 11.328125 
Q 45.015625 15.765625 45.015625 23.390625 
Q 45.015625 31 40.078125 35.4375 
Q 35.15625 39.890625 26.703125 39.890625 
Q 22.75 39.890625 18.8125 39.015625 
Q 14.890625 38.140625 10.796875 36.28125 
z
" id="DejaVuSans-53"/>
      </defs>
      <g style="fill:#262626;" transform="translate(360.535938 274.737422)scale(0.165 -0.165)">
       <use xlink:href="#DejaVuSans-53"/>
      </g>
     </g>
    </g>
    <g id="text_6">
     <!-- block -->
     <defs>
      <path d="M 48.6875 27.296875 
Q 48.6875 37.203125 44.609375 42.84375 
Q 40.53125 48.484375 33.40625 48.484375 
Q 26.265625 48.484375 22.1875 42.84375 
Q 18.109375 37.203125 18.109375 27.296875 
Q 18.109375 17.390625 22.1875 11.75 
Q 26.265625 6.109375 33.40625 6.109375 
Q 40.53125 6.109375 44.609375 11.75 
Q 48.6875 17.390625 48.6875 27.296875 
z
M 18.109375 46.390625 
Q 20.953125 51.265625 25.265625 53.625 
Q 29.59375 56 35.59375 56 
Q 45.5625 56 51.78125 48.09375 
Q 58.015625 40.1875 58.015625 27.296875 
Q 58.015625 14.40625 51.78125 6.484375 
Q 45.5625 -1.421875 35.59375 -1.421875 
Q 29.59375 -1.421875 25.265625 0.953125 
Q 20.953125 3.328125 18.109375 8.203125 
L 18.109375 0 
L 9.078125 0 
L 9.078125 75.984375 
L 18.109375 75.984375 
z
" id="DejaVuSans-98"/>
      <path d="M 9.421875 75.984375 
L 18.40625 75.984375 
L 18.40625 0 
L 9.421875 0 
z
" id="DejaVuSans-108"/>
      <path d="M 30.609375 48.390625 
Q 23.390625 48.390625 19.1875 42.75 
Q 14.984375 37.109375 14.984375 27.296875 
Q 14.984375 17.484375 19.15625 11.84375 
Q 23.34375 6.203125 30.609375 6.203125 
Q 37.796875 6.203125 41.984375 11.859375 
Q 46.1875 17.53125 46.1875 27.296875 
Q 46.1875 37.015625 41.984375 42.703125 
Q 37.796875 48.390625 30.609375 48.390625 
z
M 30.609375 56 
Q 42.328125 56 49.015625 48.375 
Q 55.71875 40.765625 55.71875 27.296875 
Q 55.71875 13.875 49.015625 6.21875 
Q 42.328125 -1.421875 30.609375 -1.421875 
Q 18.84375 -1.421875 12.171875 6.21875 
Q 5.515625 13.875 5.515625 27.296875 
Q 5.515625 40.765625 12.171875 48.375 
Q 18.84375 56 30.609375 56 
z
" id="DejaVuSans-111"/>
      <path d="M 48.78125 52.59375 
L 48.78125 44.1875 
Q 44.96875 46.296875 41.140625 47.34375 
Q 37.3125 48.390625 33.40625 48.390625 
Q 24.65625 48.390625 19.8125 42.84375 
Q 14.984375 37.3125 14.984375 27.296875 
Q 14.984375 17.28125 19.8125 11.734375 
Q 24.65625 6.203125 33.40625 6.203125 
Q 37.3125 6.203125 41.140625 7.25 
Q 44.96875 8.296875 48.78125 10.40625 
L 48.78125 2.09375 
Q 45.015625 0.34375 40.984375 -0.53125 
Q 36.96875 -1.421875 32.421875 -1.421875 
Q 20.0625 -1.421875 12.78125 6.34375 
Q 5.515625 14.109375 5.515625 27.296875 
Q 5.515625 40.671875 12.859375 48.328125 
Q 20.21875 56 33.015625 56 
Q 37.15625 56 41.109375 55.140625 
Q 45.0625 54.296875 48.78125 52.59375 
z
" id="DejaVuSans-99"/>
      <path d="M 9.078125 75.984375 
L 18.109375 75.984375 
L 18.109375 31.109375 
L 44.921875 54.6875 
L 56.390625 54.6875 
L 27.390625 29.109375 
L 57.625 0 
L 45.90625 0 
L 18.109375 26.703125 
L 18.109375 0 
L 9.078125 0 
z
" id="DejaVuSans-107"/>
     </defs>
     <g style="fill:#262626;" transform="translate(201.355174 295.846094)scale(0.18 -0.18)">
      <use xlink:href="#DejaVuSans-98"/>
      <use x="63.476562" xlink:href="#DejaVuSans-108"/>
      <use x="91.259766" xlink:href="#DejaVuSans-111"/>
      <use x="152.441406" xlink:href="#DejaVuSans-99"/>
      <use x="207.421875" xlink:href="#DejaVuSans-107"/>
     </g>
    </g>
   </g>
   <g id="matplotlib.axis_2">
    <g id="ytick_1">
     <g id="text_7">
      <!-- 0.4 -->
      <defs>
       <path d="M 31.78125 66.40625 
Q 24.171875 66.40625 20.328125 58.90625 
Q 16.5 51.421875 16.5 36.375 
Q 16.5 21.390625 20.328125 13.890625 
Q 24.171875 6.390625 31.78125 6.390625 
Q 39.453125 6.390625 43.28125 13.890625 
Q 47.125 21.390625 47.125 36.375 
Q 47.125 51.421875 43.28125 58.90625 
Q 39.453125 66.40625 31.78125 66.40625 
z
M 31.78125 74.21875 
Q 44.046875 74.21875 50.515625 64.515625 
Q 56.984375 54.828125 56.984375 36.375 
Q 56.984375 17.96875 50.515625 8.265625 
Q 44.046875 -1.421875 31.78125 -1.421875 
Q 19.53125 -1.421875 13.0625 8.265625 
Q 6.59375 17.96875 6.59375 36.375 
Q 6.59375 54.828125 13.0625 64.515625 
Q 19.53125 74.21875 31.78125 74.21875 
z
" id="DejaVuSans-48"/>
       <path d="M 10.6875 12.40625 
L 21 12.40625 
L 21 0 
L 10.6875 0 
z
" id="DejaVuSans-46"/>
      </defs>
      <g style="fill:#262626;" transform="translate(10.809844 245.518711)scale(0.165 -0.165)">
       <use xlink:href="#DejaVuSans-48"/>
       <use x="63.623047" xlink:href="#DejaVuSans-46"/>
       <use x="95.410156" xlink:href="#DejaVuSans-52"/>
      </g>
     </g>
    </g>
    <g id="ytick_2">
     <g id="text_8">
      <!-- 0.6 -->
      <defs>
       <path d="M 33.015625 40.375 
Q 26.375 40.375 22.484375 35.828125 
Q 18.609375 31.296875 18.609375 23.390625 
Q 18.609375 15.53125 22.484375 10.953125 
Q 26.375 6.390625 33.015625 6.390625 
Q 39.65625 6.390625 43.53125 10.953125 
Q 47.40625 15.53125 47.40625 23.390625 
Q 47.40625 31.296875 43.53125 35.828125 
Q 39.65625 40.375 33.015625 40.375 
z
M 52.59375 71.296875 
L 52.59375 62.3125 
Q 48.875 64.0625 45.09375 64.984375 
Q 41.3125 65.921875 37.59375 65.921875 
Q 27.828125 65.921875 22.671875 59.328125 
Q 17.53125 52.734375 16.796875 39.40625 
Q 19.671875 43.65625 24.015625 45.921875 
Q 28.375 48.1875 33.59375 48.1875 
Q 44.578125 48.1875 50.953125 41.515625 
Q 57.328125 34.859375 57.328125 23.390625 
Q 57.328125 12.15625 50.6875 5.359375 
Q 44.046875 -1.421875 33.015625 -1.421875 
Q 20.359375 -1.421875 13.671875 8.265625 
Q 6.984375 17.96875 6.984375 36.375 
Q 6.984375 53.65625 15.1875 63.9375 
Q 23.390625 74.21875 37.203125 74.21875 
Q 40.921875 74.21875 44.703125 73.484375 
Q 48.484375 72.75 52.59375 71.296875 
z
" id="DejaVuSans-54"/>
      </defs>
      <g style="fill:#262626;" transform="translate(10.809844 172.973253)scale(0.165 -0.165)">
       <use xlink:href="#DejaVuSans-48"/>
       <use x="63.623047" xlink:href="#DejaVuSans-46"/>
       <use x="95.410156" xlink:href="#DejaVuSans-54"/>
      </g>
     </g>
    </g>
    <g id="ytick_3">
     <g id="text_9">
      <!-- 0.8 -->
      <defs>
       <path d="M 31.78125 34.625 
Q 24.75 34.625 20.71875 30.859375 
Q 16.703125 27.09375 16.703125 20.515625 
Q 16.703125 13.921875 20.71875 10.15625 
Q 24.75 6.390625 31.78125 6.390625 
Q 38.8125 6.390625 42.859375 10.171875 
Q 46.921875 13.96875 46.921875 20.515625 
Q 46.921875 27.09375 42.890625 30.859375 
Q 38.875 34.625 31.78125 34.625 
z
M 21.921875 38.8125 
Q 15.578125 40.375 12.03125 44.71875 
Q 8.5 49.078125 8.5 55.328125 
Q 8.5 64.0625 14.71875 69.140625 
Q 20.953125 74.21875 31.78125 74.21875 
Q 42.671875 74.21875 48.875 69.140625 
Q 55.078125 64.0625 55.078125 55.328125 
Q 55.078125 49.078125 51.53125 44.71875 
Q 48 40.375 41.703125 38.8125 
Q 48.828125 37.15625 52.796875 32.3125 
Q 56.78125 27.484375 56.78125 20.515625 
Q 56.78125 9.90625 50.3125 4.234375 
Q 43.84375 -1.421875 31.78125 -1.421875 
Q 19.734375 -1.421875 13.25 4.234375 
Q 6.78125 9.90625 6.78125 20.515625 
Q 6.78125 27.484375 10.78125 32.3125 
Q 14.796875 37.15625 21.921875 38.8125 
z
M 18.3125 54.390625 
Q 18.3125 48.734375 21.84375 45.5625 
Q 25.390625 42.390625 31.78125 42.390625 
Q 38.140625 42.390625 41.71875 45.5625 
Q 45.3125 48.734375 45.3125 54.390625 
Q 45.3125 60.0625 41.71875 63.234375 
Q 38.140625 66.40625 31.78125 66.40625 
Q 25.390625 66.40625 21.84375 63.234375 
Q 18.3125 60.0625 18.3125 54.390625 
z
" id="DejaVuSans-56"/>
      </defs>
      <g style="fill:#262626;" transform="translate(10.809844 100.427795)scale(0.165 -0.165)">
       <use xlink:href="#DejaVuSans-48"/>
       <use x="63.623047" xlink:href="#DejaVuSans-46"/>
       <use x="95.410156" xlink:href="#DejaVuSans-56"/>
      </g>
     </g>
    </g>
    <g id="ytick_4">
     <g id="text_10">
      <!-- 1.0 -->
      <g style="fill:#262626;" transform="translate(10.809844 27.882337)scale(0.165 -0.165)">
       <use xlink:href="#DejaVuSans-49"/>
       <use x="63.623047" xlink:href="#DejaVuSans-46"/>
       <use x="95.410156" xlink:href="#DejaVuSans-48"/>
      </g>
     </g>
    </g>
    <g id="text_11">
     <!-- performance -->
     <defs>
      <path d="M 18.109375 8.203125 
L 18.109375 -20.796875 
L 9.078125 -20.796875 
L 9.078125 54.6875 
L 18.109375 54.6875 
L 18.109375 46.390625 
Q 20.953125 51.265625 25.265625 53.625 
Q 29.59375 56 35.59375 56 
Q 45.5625 56 51.78125 48.09375 
Q 58.015625 40.1875 58.015625 27.296875 
Q 58.015625 14.40625 51.78125 6.484375 
Q 45.5625 -1.421875 35.59375 -1.421875 
Q 29.59375 -1.421875 25.265625 0.953125 
Q 20.953125 3.328125 18.109375 8.203125 
z
M 48.6875 27.296875 
Q 48.6875 37.203125 44.609375 42.84375 
Q 40.53125 48.484375 33.40625 48.484375 
Q 26.265625 48.484375 22.1875 42.84375 
Q 18.109375 37.203125 18.109375 27.296875 
Q 18.109375 17.390625 22.1875 11.75 
Q 26.265625 6.109375 33.40625 6.109375 
Q 40.53125 6.109375 44.609375 11.75 
Q 48.6875 17.390625 48.6875 27.296875 
z
" id="DejaVuSans-112"/>
      <path d="M 56.203125 29.59375 
L 56.203125 25.203125 
L 14.890625 25.203125 
Q 15.484375 15.921875 20.484375 11.0625 
Q 25.484375 6.203125 34.421875 6.203125 
Q 39.59375 6.203125 44.453125 7.46875 
Q 49.3125 8.734375 54.109375 11.28125 
L 54.109375 2.78125 
Q 49.265625 0.734375 44.1875 -0.34375 
Q 39.109375 -1.421875 33.890625 -1.421875 
Q 20.796875 -1.421875 13.15625 6.1875 
Q 5.515625 13.8125 5.515625 26.8125 
Q 5.515625 40.234375 12.765625 48.109375 
Q 20.015625 56 32.328125 56 
Q 43.359375 56 49.78125 48.890625 
Q 56.203125 41.796875 56.203125 29.59375 
z
M 47.21875 32.234375 
Q 47.125 39.59375 43.09375 43.984375 
Q 39.0625 48.390625 32.421875 48.390625 
Q 24.90625 48.390625 20.390625 44.140625 
Q 15.875 39.890625 15.1875 32.171875 
z
" id="DejaVuSans-101"/>
      <path d="M 41.109375 46.296875 
Q 39.59375 47.171875 37.8125 47.578125 
Q 36.03125 48 33.890625 48 
Q 26.265625 48 22.1875 43.046875 
Q 18.109375 38.09375 18.109375 28.8125 
L 18.109375 0 
L 9.078125 0 
L 9.078125 54.6875 
L 18.109375 54.6875 
L 18.109375 46.1875 
Q 20.953125 51.171875 25.484375 53.578125 
Q 30.03125 56 36.53125 56 
Q 37.453125 56 38.578125 55.875 
Q 39.703125 55.765625 41.0625 55.515625 
z
" id="DejaVuSans-114"/>
      <path d="M 37.109375 75.984375 
L 37.109375 68.5 
L 28.515625 68.5 
Q 23.6875 68.5 21.796875 66.546875 
Q 19.921875 64.59375 19.921875 59.515625 
L 19.921875 54.6875 
L 34.71875 54.6875 
L 34.71875 47.703125 
L 19.921875 47.703125 
L 19.921875 0 
L 10.890625 0 
L 10.890625 47.703125 
L 2.296875 47.703125 
L 2.296875 54.6875 
L 10.890625 54.6875 
L 10.890625 58.5 
Q 10.890625 67.625 15.140625 71.796875 
Q 19.390625 75.984375 28.609375 75.984375 
z
" id="DejaVuSans-102"/>
      <path d="M 52 44.1875 
Q 55.375 50.25 60.0625 53.125 
Q 64.75 56 71.09375 56 
Q 79.640625 56 84.28125 50.015625 
Q 88.921875 44.046875 88.921875 33.015625 
L 88.921875 0 
L 79.890625 0 
L 79.890625 32.71875 
Q 79.890625 40.578125 77.09375 44.375 
Q 74.3125 48.1875 68.609375 48.1875 
Q 61.625 48.1875 57.5625 43.546875 
Q 53.515625 38.921875 53.515625 30.90625 
L 53.515625 0 
L 44.484375 0 
L 44.484375 32.71875 
Q 44.484375 40.625 41.703125 44.40625 
Q 38.921875 48.1875 33.109375 48.1875 
Q 26.21875 48.1875 22.15625 43.53125 
Q 18.109375 38.875 18.109375 30.90625 
L 18.109375 0 
L 9.078125 0 
L 9.078125 54.6875 
L 18.109375 54.6875 
L 18.109375 46.1875 
Q 21.1875 51.21875 25.484375 53.609375 
Q 29.78125 56 35.6875 56 
Q 41.65625 56 45.828125 52.96875 
Q 50 49.953125 52 44.1875 
z
" id="DejaVuSans-109"/>
      <path d="M 34.28125 27.484375 
Q 23.390625 27.484375 19.1875 25 
Q 14.984375 22.515625 14.984375 16.5 
Q 14.984375 11.71875 18.140625 8.90625 
Q 21.296875 6.109375 26.703125 6.109375 
Q 34.1875 6.109375 38.703125 11.40625 
Q 43.21875 16.703125 43.21875 25.484375 
L 43.21875 27.484375 
z
M 52.203125 31.203125 
L 52.203125 0 
L 43.21875 0 
L 43.21875 8.296875 
Q 40.140625 3.328125 35.546875 0.953125 
Q 30.953125 -1.421875 24.3125 -1.421875 
Q 15.921875 -1.421875 10.953125 3.296875 
Q 6 8.015625 6 15.921875 
Q 6 25.140625 12.171875 29.828125 
Q 18.359375 34.515625 30.609375 34.515625 
L 43.21875 34.515625 
L 43.21875 35.40625 
Q 43.21875 41.609375 39.140625 45 
Q 35.0625 48.390625 27.6875 48.390625 
Q 23 48.390625 18.546875 47.265625 
Q 14.109375 46.140625 10.015625 43.890625 
L 10.015625 52.203125 
Q 14.9375 54.109375 19.578125 55.046875 
Q 24.21875 56 28.609375 56 
Q 40.484375 56 46.34375 49.84375 
Q 52.203125 43.703125 52.203125 31.203125 
z
" id="DejaVuSans-97"/>
      <path d="M 54.890625 33.015625 
L 54.890625 0 
L 45.90625 0 
L 45.90625 32.71875 
Q 45.90625 40.484375 42.875 44.328125 
Q 39.84375 48.1875 33.796875 48.1875 
Q 26.515625 48.1875 22.3125 43.546875 
Q 18.109375 38.921875 18.109375 30.90625 
L 18.109375 0 
L 9.078125 0 
L 9.078125 54.6875 
L 18.109375 54.6875 
L 18.109375 46.1875 
Q 21.34375 51.125 25.703125 53.5625 
Q 30.078125 56 35.796875 56 
Q 45.21875 56 50.046875 50.171875 
Q 54.890625 44.34375 54.890625 33.015625 
z
" id="DejaVuSans-110"/>
     </defs>
     <g style="fill:#262626;" transform="translate(3.066406 192.546875)rotate(-90)scale(0.18 -0.18)">
      <use xlink:href="#DejaVuSans-112"/>
      <use x="63.476562" xlink:href="#DejaVuSans-101"/>
      <use x="125" xlink:href="#DejaVuSans-114"/>
      <use x="166.113281" xlink:href="#DejaVuSans-102"/>
      <use x="201.318359" xlink:href="#DejaVuSans-111"/>
      <use x="262.5" xlink:href="#DejaVuSans-114"/>
      <use x="303.597656" xlink:href="#DejaVuSans-109"/>
      <use x="401.009766" xlink:href="#DejaVuSans-97"/>
      <use x="462.289062" xlink:href="#DejaVuSans-110"/>
      <use x="525.667969" xlink:href="#DejaVuSans-99"/>
      <use x="580.648438" xlink:href="#DejaVuSans-101"/>
     </g>
    </g>
   </g>
   <g id="patch_3">
    <path clip-path="url(#pb5a3a52f14)" d="M 56.858542 41.519394 
L 84.406124 41.519394 
L 84.406124 36.206093 
L 56.858542 36.206093 
L 56.858542 41.519394 
z
" style="fill:#72b6a1;stroke:#595959;stroke-linejoin:miter;stroke-width:2.25;"/>
   </g>
   <g id="patch_4">
    <path clip-path="url(#pb5a3a52f14)" d="M 84.96832 87.371213 
L 112.515902 87.371213 
L 112.515902 77.417821 
L 84.96832 77.417821 
L 84.96832 87.371213 
z
" style="fill:#e99675;stroke:#595959;stroke-linejoin:miter;stroke-width:2.25;"/>
   </g>
   <g id="patch_5">
    <path clip-path="url(#pb5a3a52f14)" d="M 127.132987 55.833176 
L 154.680569 55.833176 
L 154.680569 51.137932 
L 127.132987 51.137932 
L 127.132987 55.833176 
z
" style="fill:#72b6a1;stroke:#595959;stroke-linejoin:miter;stroke-width:2.25;"/>
   </g>
   <g id="patch_6">
    <path clip-path="url(#pb5a3a52f14)" d="M 155.242764 74.643924 
L 182.790347 74.643924 
L 182.790347 64.419954 
L 155.242764 64.419954 
L 155.242764 74.643924 
z
" style="fill:#e99675;stroke:#595959;stroke-linejoin:miter;stroke-width:2.25;"/>
   </g>
   <g id="patch_7">
    <path clip-path="url(#pb5a3a52f14)" d="M 197.407431 53.85605 
L 224.955013 53.85605 
L 224.955013 46.486361 
L 197.407431 46.486361 
L 197.407431 53.85605 
z
" style="fill:#72b6a1;stroke:#595959;stroke-linejoin:miter;stroke-width:2.25;"/>
   </g>
   <g id="patch_8">
    <path clip-path="url(#pb5a3a52f14)" d="M 225.517209 47.677852 
L 253.064791 47.677852 
L 253.064791 44.143269 
L 225.517209 44.143269 
L 225.517209 47.677852 
z
" style="fill:#e99675;stroke:#595959;stroke-linejoin:miter;stroke-width:2.25;"/>
   </g>
   <g id="patch_9">
    <path clip-path="url(#pb5a3a52f14)" d="M 267.681876 52.009768 
L 295.229458 52.009768 
L 295.229458 47.677852 
L 267.681876 47.677852 
L 267.681876 52.009768 
z
" style="fill:#72b6a1;stroke:#595959;stroke-linejoin:miter;stroke-width:2.25;"/>
   </g>
   <g id="patch_10">
    <path clip-path="url(#pb5a3a52f14)" d="M 295.791653 82.771141 
L 323.339236 82.771141 
L 323.339236 75.198331 
L 295.791653 75.198331 
L 295.791653 82.771141 
z
" style="fill:#e99675;stroke:#595959;stroke-linejoin:miter;stroke-width:2.25;"/>
   </g>
   <g id="patch_11">
    <path clip-path="url(#pb5a3a52f14)" d="M 337.95632 97.634315 
L 365.503902 97.634315 
L 365.503902 84.880022 
L 337.95632 84.880022 
L 337.95632 97.634315 
z
" style="fill:#72b6a1;stroke:#595959;stroke-linejoin:miter;stroke-width:2.25;"/>
   </g>
   <g id="patch_12">
    <path clip-path="url(#pb5a3a52f14)" d="M 366.066098 68.008977 
L 393.61368 68.008977 
L 393.61368 59.213413 
L 366.066098 59.213413 
L 366.066098 68.008977 
z
" style="fill:#e99675;stroke:#595959;stroke-linejoin:miter;stroke-width:2.25;"/>
   </g>
   <g id="patch_13">
    <path clip-path="url(#pb5a3a52f14)" d="M 84.687222 384.340916 
L 84.687222 384.340916 
L 84.687222 384.340916 
L 84.687222 384.340916 
z
" style="fill:#72b6a1;stroke:#595959;stroke-linejoin:miter;stroke-width:1.125;"/>
   </g>
   <g id="patch_14">
    <path clip-path="url(#pb5a3a52f14)" d="M 84.687222 384.340916 
L 84.687222 384.340916 
L 84.687222 384.340916 
L 84.687222 384.340916 
z
" style="fill:#e99675;stroke:#595959;stroke-linejoin:miter;stroke-width:1.125;"/>
   </g>
   <g id="LineCollection_1">
    <path clip-path="url(#pb5a3a52f14)" d="M 330.647778 239.25 
L 330.647778 57.886355 
" style="fill:none;stroke:#1a1a1a;stroke-dasharray:8.325,3.6;stroke-dashoffset:0;stroke-width:2.25;"/>
   </g>
   <g id="line2d_1">
    <path clip-path="url(#pb5a3a52f14)" d="M 70.632333 41.519394 
L 70.632333 47.068162 
" style="fill:none;stroke:#595959;stroke-linecap:round;stroke-width:2.25;"/>
   </g>
   <g id="line2d_2">
    <path clip-path="url(#pb5a3a52f14)" d="M 70.632333 36.206093 
L 70.632333 30.25 
" style="fill:none;stroke:#595959;stroke-linecap:round;stroke-width:2.25;"/>
   </g>
   <g id="line2d_3">
    <path clip-path="url(#pb5a3a52f14)" d="M 63.745438 47.068162 
L 77.519229 47.068162 
" style="fill:none;stroke:#595959;stroke-linecap:round;stroke-width:2.25;"/>
   </g>
   <g id="line2d_4">
    <path clip-path="url(#pb5a3a52f14)" d="M 63.745438 30.25 
L 77.519229 30.25 
" style="fill:none;stroke:#595959;stroke-linecap:round;stroke-width:2.25;"/>
   </g>
   <g id="line2d_5"/>
   <g id="line2d_6">
    <path clip-path="url(#pb5a3a52f14)" d="M 98.742111 87.371213 
L 98.742111 93.33937 
" style="fill:none;stroke:#595959;stroke-linecap:round;stroke-width:2.25;"/>
   </g>
   <g id="line2d_7">
    <path clip-path="url(#pb5a3a52f14)" d="M 98.742111 77.417821 
L 98.742111 71.570089 
" style="fill:none;stroke:#595959;stroke-linecap:round;stroke-width:2.25;"/>
   </g>
   <g id="line2d_8">
    <path clip-path="url(#pb5a3a52f14)" d="M 91.855216 93.33937 
L 105.629007 93.33937 
" style="fill:none;stroke:#595959;stroke-linecap:round;stroke-width:2.25;"/>
   </g>
   <g id="line2d_9">
    <path clip-path="url(#pb5a3a52f14)" d="M 91.855216 71.570089 
L 105.629007 71.570089 
" style="fill:none;stroke:#595959;stroke-linecap:round;stroke-width:2.25;"/>
   </g>
   <g id="line2d_10">
    <defs>
     <path d="M -0 3.535534 
L 2.12132 0 
L -0 -3.535534 
L -2.12132 -0 
z
" id="mf0ace4c87c" style="stroke:#595959;stroke-linejoin:miter;"/>
    </defs>
    <g clip-path="url(#pb5a3a52f14)">
     <use style="fill:#595959;stroke:#595959;stroke-linejoin:miter;" x="98.742111" xlink:href="#mf0ace4c87c" y="110.2345"/>
    </g>
   </g>
   <g id="line2d_11">
    <path clip-path="url(#pb5a3a52f14)" d="M 140.906778 55.833176 
L 140.906778 60.550451 
" style="fill:none;stroke:#595959;stroke-linecap:round;stroke-width:2.25;"/>
   </g>
   <g id="line2d_12">
    <path clip-path="url(#pb5a3a52f14)" d="M 140.906778 51.137932 
L 140.906778 48.254615 
" style="fill:none;stroke:#595959;stroke-linecap:round;stroke-width:2.25;"/>
   </g>
   <g id="line2d_13">
    <path clip-path="url(#pb5a3a52f14)" d="M 134.019882 60.550451 
L 147.793673 60.550451 
" style="fill:none;stroke:#595959;stroke-linecap:round;stroke-width:2.25;"/>
   </g>
   <g id="line2d_14">
    <path clip-path="url(#pb5a3a52f14)" d="M 134.019882 48.254615 
L 147.793673 48.254615 
" style="fill:none;stroke:#595959;stroke-linecap:round;stroke-width:2.25;"/>
   </g>
   <g id="line2d_15">
    <g clip-path="url(#pb5a3a52f14)">
     <use style="fill:#595959;stroke:#595959;stroke-linejoin:miter;" x="140.906778" xlink:href="#mf0ace4c87c" y="64.649064"/>
    </g>
   </g>
   <g id="line2d_16">
    <path clip-path="url(#pb5a3a52f14)" d="M 169.016556 74.643924 
L 169.016556 78.671859 
" style="fill:none;stroke:#595959;stroke-linecap:round;stroke-width:2.25;"/>
   </g>
   <g id="line2d_17">
    <path clip-path="url(#pb5a3a52f14)" d="M 169.016556 64.419954 
L 169.016556 51.270573 
" style="fill:none;stroke:#595959;stroke-linecap:round;stroke-width:2.25;"/>
   </g>
   <g id="line2d_18">
    <path clip-path="url(#pb5a3a52f14)" d="M 162.12966 78.671859 
L 175.903451 78.671859 
" style="fill:none;stroke:#595959;stroke-linecap:round;stroke-width:2.25;"/>
   </g>
   <g id="line2d_19">
    <path clip-path="url(#pb5a3a52f14)" d="M 162.12966 51.270573 
L 175.903451 51.270573 
" style="fill:none;stroke:#595959;stroke-linecap:round;stroke-width:2.25;"/>
   </g>
   <g id="line2d_20"/>
   <g id="line2d_21">
    <path clip-path="url(#pb5a3a52f14)" d="M 211.181222 53.85605 
L 211.181222 60.331698 
" style="fill:none;stroke:#595959;stroke-linecap:round;stroke-width:2.25;"/>
   </g>
   <g id="line2d_22">
    <path clip-path="url(#pb5a3a52f14)" d="M 211.181222 46.486361 
L 211.181222 46.067145 
" style="fill:none;stroke:#595959;stroke-linecap:round;stroke-width:2.25;"/>
   </g>
   <g id="line2d_23">
    <path clip-path="url(#pb5a3a52f14)" d="M 204.294327 60.331698 
L 218.068118 60.331698 
" style="fill:none;stroke:#595959;stroke-linecap:round;stroke-width:2.25;"/>
   </g>
   <g id="line2d_24">
    <path clip-path="url(#pb5a3a52f14)" d="M 204.294327 46.067145 
L 218.068118 46.067145 
" style="fill:none;stroke:#595959;stroke-linecap:round;stroke-width:2.25;"/>
   </g>
   <g id="line2d_25"/>
   <g id="line2d_26">
    <path clip-path="url(#pb5a3a52f14)" d="M 239.291 47.677852 
L 239.291 52.883226 
" style="fill:none;stroke:#595959;stroke-linecap:round;stroke-width:2.25;"/>
   </g>
   <g id="line2d_27">
    <path clip-path="url(#pb5a3a52f14)" d="M 239.291 44.143269 
L 239.291 39.094469 
" style="fill:none;stroke:#595959;stroke-linecap:round;stroke-width:2.25;"/>
   </g>
   <g id="line2d_28">
    <path clip-path="url(#pb5a3a52f14)" d="M 232.404104 52.883226 
L 246.177896 52.883226 
" style="fill:none;stroke:#595959;stroke-linecap:round;stroke-width:2.25;"/>
   </g>
   <g id="line2d_29">
    <path clip-path="url(#pb5a3a52f14)" d="M 232.404104 39.094469 
L 246.177896 39.094469 
" style="fill:none;stroke:#595959;stroke-linecap:round;stroke-width:2.25;"/>
   </g>
   <g id="line2d_30">
    <g clip-path="url(#pb5a3a52f14)">
     <use style="fill:#595959;stroke:#595959;stroke-linejoin:miter;" x="239.291" xlink:href="#mf0ace4c87c" y="62.599768"/>
    </g>
   </g>
   <g id="line2d_31">
    <path clip-path="url(#pb5a3a52f14)" d="M 281.455667 52.009768 
L 281.455667 56.649794 
" style="fill:none;stroke:#595959;stroke-linecap:round;stroke-width:2.25;"/>
   </g>
   <g id="line2d_32">
    <path clip-path="url(#pb5a3a52f14)" d="M 281.455667 47.677852 
L 281.455667 42.340898 
" style="fill:none;stroke:#595959;stroke-linecap:round;stroke-width:2.25;"/>
   </g>
   <g id="line2d_33">
    <path clip-path="url(#pb5a3a52f14)" d="M 274.568771 56.649794 
L 288.342562 56.649794 
" style="fill:none;stroke:#595959;stroke-linecap:round;stroke-width:2.25;"/>
   </g>
   <g id="line2d_34">
    <path clip-path="url(#pb5a3a52f14)" d="M 274.568771 42.340898 
L 288.342562 42.340898 
" style="fill:none;stroke:#595959;stroke-linecap:round;stroke-width:2.25;"/>
   </g>
   <g id="line2d_35">
    <g clip-path="url(#pb5a3a52f14)">
     <use style="fill:#595959;stroke:#595959;stroke-linejoin:miter;" x="281.455667" xlink:href="#mf0ace4c87c" y="40.704528"/>
    </g>
   </g>
   <g id="line2d_36">
    <path clip-path="url(#pb5a3a52f14)" d="M 309.565444 82.771141 
L 309.565444 88.322093 
" style="fill:none;stroke:#595959;stroke-linecap:round;stroke-width:2.25;"/>
   </g>
   <g id="line2d_37">
    <path clip-path="url(#pb5a3a52f14)" d="M 309.565444 75.198331 
L 309.565444 71.871021 
" style="fill:none;stroke:#595959;stroke-linecap:round;stroke-width:2.25;"/>
   </g>
   <g id="line2d_38">
    <path clip-path="url(#pb5a3a52f14)" d="M 302.678549 88.322093 
L 316.45234 88.322093 
" style="fill:none;stroke:#595959;stroke-linecap:round;stroke-width:2.25;"/>
   </g>
   <g id="line2d_39">
    <path clip-path="url(#pb5a3a52f14)" d="M 302.678549 71.871021 
L 316.45234 71.871021 
" style="fill:none;stroke:#595959;stroke-linecap:round;stroke-width:2.25;"/>
   </g>
   <g id="line2d_40"/>
   <g id="line2d_41">
    <path clip-path="url(#pb5a3a52f14)" d="M 351.730111 97.634315 
L 351.730111 115.422404 
" style="fill:none;stroke:#595959;stroke-linecap:round;stroke-width:2.25;"/>
   </g>
   <g id="line2d_42">
    <path clip-path="url(#pb5a3a52f14)" d="M 351.730111 84.880022 
L 351.730111 75.684765 
" style="fill:none;stroke:#595959;stroke-linecap:round;stroke-width:2.25;"/>
   </g>
   <g id="line2d_43">
    <path clip-path="url(#pb5a3a52f14)" d="M 344.843216 115.422404 
L 358.617007 115.422404 
" style="fill:none;stroke:#595959;stroke-linecap:round;stroke-width:2.25;"/>
   </g>
   <g id="line2d_44">
    <path clip-path="url(#pb5a3a52f14)" d="M 344.843216 75.684765 
L 358.617007 75.684765 
" style="fill:none;stroke:#595959;stroke-linecap:round;stroke-width:2.25;"/>
   </g>
   <g id="line2d_45"/>
   <g id="line2d_46">
    <path clip-path="url(#pb5a3a52f14)" d="M 379.839889 68.008977 
L 379.839889 79.74299 
" style="fill:none;stroke:#595959;stroke-linecap:round;stroke-width:2.25;"/>
   </g>
   <g id="line2d_47">
    <path clip-path="url(#pb5a3a52f14)" d="M 379.839889 59.213413 
L 379.839889 47.993789 
" style="fill:none;stroke:#595959;stroke-linecap:round;stroke-width:2.25;"/>
   </g>
   <g id="line2d_48">
    <path clip-path="url(#pb5a3a52f14)" d="M 372.952993 79.74299 
L 386.726784 79.74299 
" style="fill:none;stroke:#595959;stroke-linecap:round;stroke-width:2.25;"/>
   </g>
   <g id="line2d_49">
    <path clip-path="url(#pb5a3a52f14)" d="M 372.952993 47.993789 
L 386.726784 47.993789 
" style="fill:none;stroke:#595959;stroke-linecap:round;stroke-width:2.25;"/>
   </g>
   <g id="line2d_50">
    <g clip-path="url(#pb5a3a52f14)">
     <use style="fill:#595959;stroke:#595959;stroke-linejoin:miter;" x="379.839889" xlink:href="#mf0ace4c87c" y="84.307237"/>
     <use style="fill:#595959;stroke:#595959;stroke-linejoin:miter;" x="379.839889" xlink:href="#mf0ace4c87c" y="44.004207"/>
     <use style="fill:#595959;stroke:#595959;stroke-linejoin:miter;" x="379.839889" xlink:href="#mf0ace4c87c" y="42.580515"/>
    </g>
   </g>
   <g id="line2d_51">
    <path clip-path="url(#pb5a3a52f14)" d="M 56.858542 38.387142 
L 84.406124 38.387142 
" style="fill:none;stroke:#595959;stroke-linecap:round;stroke-width:2.25;"/>
   </g>
   <g id="line2d_52">
    <path clip-path="url(#pb5a3a52f14)" d="M 84.96832 83.128783 
L 112.515902 83.128783 
" style="fill:none;stroke:#595959;stroke-linecap:round;stroke-width:2.25;"/>
   </g>
   <g id="line2d_53">
    <path clip-path="url(#pb5a3a52f14)" d="M 127.132987 52.009768 
L 154.680569 52.009768 
" style="fill:none;stroke:#595959;stroke-linecap:round;stroke-width:2.25;"/>
   </g>
   <g id="line2d_54">
    <path clip-path="url(#pb5a3a52f14)" d="M 155.242764 68.554802 
L 182.790347 68.554802 
" style="fill:none;stroke:#595959;stroke-linecap:round;stroke-width:2.25;"/>
   </g>
   <g id="line2d_55">
    <path clip-path="url(#pb5a3a52f14)" d="M 197.407431 49.669876 
L 224.955013 49.669876 
" style="fill:none;stroke:#595959;stroke-linecap:round;stroke-width:2.25;"/>
   </g>
   <g id="line2d_56">
    <path clip-path="url(#pb5a3a52f14)" d="M 225.517209 45.084224 
L 253.064791 45.084224 
" style="fill:none;stroke:#595959;stroke-linecap:round;stroke-width:2.25;"/>
   </g>
   <g id="line2d_57">
    <path clip-path="url(#pb5a3a52f14)" d="M 267.681876 51.137932 
L 295.229458 51.137932 
" style="fill:none;stroke:#595959;stroke-linecap:round;stroke-width:2.25;"/>
   </g>
   <g id="line2d_58">
    <path clip-path="url(#pb5a3a52f14)" d="M 295.791653 79.564148 
L 323.339236 79.564148 
" style="fill:none;stroke:#595959;stroke-linecap:round;stroke-width:2.25;"/>
   </g>
   <g id="line2d_59">
    <path clip-path="url(#pb5a3a52f14)" d="M 337.95632 88.190144 
L 365.503902 88.190144 
" style="fill:none;stroke:#595959;stroke-linecap:round;stroke-width:2.25;"/>
   </g>
   <g id="line2d_60">
    <path clip-path="url(#pb5a3a52f14)" d="M 366.066098 65.232723 
L 393.61368 65.232723 
" style="fill:none;stroke:#595959;stroke-linecap:round;stroke-width:2.25;"/>
   </g>
   <g id="patch_15">
    <path d="M 49.55 249.7 
L 49.55 19.8 
" style="fill:none;stroke:#262626;stroke-linecap:square;stroke-linejoin:miter;stroke-width:1.875;"/>
   </g>
   <g id="patch_16">
    <path d="M 400.922222 249.7 
L 400.922222 19.8 
" style="fill:none;stroke:#262626;stroke-linecap:square;stroke-linejoin:miter;stroke-width:1.875;"/>
   </g>
   <g id="patch_17">
    <path d="M 49.55 249.7 
L 400.922222 249.7 
" style="fill:none;stroke:#262626;stroke-linecap:square;stroke-linejoin:miter;stroke-width:1.875;"/>
   </g>
   <g id="patch_18">
    <path d="M 49.55 19.8 
L 400.922222 19.8 
" style="fill:none;stroke:#262626;stroke-linecap:square;stroke-linejoin:miter;stroke-width:1.875;"/>
   </g>
   <g id="legend_1">
    <g id="patch_19">
     <path d="M 61.1 241.45 
L 141.305469 241.45 
Q 144.605469 241.45 144.605469 238.15 
L 144.605469 168.304656 
Q 144.605469 165.004656 141.305469 165.004656 
L 61.1 165.004656 
Q 57.8 165.004656 57.8 168.304656 
L 57.8 238.15 
Q 57.8 241.45 61.1 241.45 
z
" style="fill:#ffffff;opacity:0.8;stroke:#cccccc;stroke-linejoin:miter;stroke-width:1.5;"/>
    </g>
    <g id="text_12">
     <!-- order -->
     <defs>
      <path d="M 45.40625 46.390625 
L 45.40625 75.984375 
L 54.390625 75.984375 
L 54.390625 0 
L 45.40625 0 
L 45.40625 8.203125 
Q 42.578125 3.328125 38.25 0.953125 
Q 33.9375 -1.421875 27.875 -1.421875 
Q 17.96875 -1.421875 11.734375 6.484375 
Q 5.515625 14.40625 5.515625 27.296875 
Q 5.515625 40.1875 11.734375 48.09375 
Q 17.96875 56 27.875 56 
Q 33.9375 56 38.25 53.625 
Q 42.578125 51.265625 45.40625 46.390625 
z
M 14.796875 27.296875 
Q 14.796875 17.390625 18.875 11.75 
Q 22.953125 6.109375 30.078125 6.109375 
Q 37.203125 6.109375 41.296875 11.75 
Q 45.40625 17.390625 45.40625 27.296875 
Q 45.40625 37.203125 41.296875 42.84375 
Q 37.203125 48.484375 30.078125 48.484375 
Q 22.953125 48.484375 18.875 42.84375 
Q 14.796875 37.203125 14.796875 27.296875 
z
" id="DejaVuSans-100"/>
     </defs>
     <g style="fill:#262626;" transform="translate(80.669656 183.230266)scale(0.153 -0.153)">
      <use xlink:href="#DejaVuSans-111"/>
      <use x="61.181641" xlink:href="#DejaVuSans-114"/>
      <use x="102.279297" xlink:href="#DejaVuSans-100"/>
      <use x="165.755859" xlink:href="#DejaVuSans-101"/>
      <use x="227.279297" xlink:href="#DejaVuSans-114"/>
     </g>
    </g>
    <g id="patch_20">
     <path d="M 64.4 207.199609 
L 97.4 207.199609 
L 97.4 195.649609 
L 64.4 195.649609 
z
" style="fill:#72b6a1;stroke:#595959;stroke-linejoin:miter;stroke-width:1.125;"/>
    </g>
    <g id="text_13">
     <!-- reg -->
     <defs>
      <path d="M 45.40625 27.984375 
Q 45.40625 37.75 41.375 43.109375 
Q 37.359375 48.484375 30.078125 48.484375 
Q 22.859375 48.484375 18.828125 43.109375 
Q 14.796875 37.75 14.796875 27.984375 
Q 14.796875 18.265625 18.828125 12.890625 
Q 22.859375 7.515625 30.078125 7.515625 
Q 37.359375 7.515625 41.375 12.890625 
Q 45.40625 18.265625 45.40625 27.984375 
z
M 54.390625 6.78125 
Q 54.390625 -7.171875 48.1875 -13.984375 
Q 42 -20.796875 29.203125 -20.796875 
Q 24.46875 -20.796875 20.265625 -20.09375 
Q 16.0625 -19.390625 12.109375 -17.921875 
L 12.109375 -9.1875 
Q 16.0625 -11.328125 19.921875 -12.34375 
Q 23.78125 -13.375 27.78125 -13.375 
Q 36.625 -13.375 41.015625 -8.765625 
Q 45.40625 -4.15625 45.40625 5.171875 
L 45.40625 9.625 
Q 42.625 4.78125 38.28125 2.390625 
Q 33.9375 0 27.875 0 
Q 17.828125 0 11.671875 7.65625 
Q 5.515625 15.328125 5.515625 27.984375 
Q 5.515625 40.671875 11.671875 48.328125 
Q 17.828125 56 27.875 56 
Q 33.9375 56 38.28125 53.609375 
Q 42.625 51.21875 45.40625 46.390625 
L 45.40625 54.6875 
L 54.390625 54.6875 
z
" id="DejaVuSans-103"/>
     </defs>
     <g style="fill:#262626;" transform="translate(110.6 207.199609)scale(0.165 -0.165)">
      <use xlink:href="#DejaVuSans-114"/>
      <use x="41.082031" xlink:href="#DejaVuSans-101"/>
      <use x="102.605469" xlink:href="#DejaVuSans-103"/>
     </g>
    </g>
    <g id="patch_21">
     <path d="M 64.4 231.418516 
L 97.4 231.418516 
L 97.4 219.868516 
L 64.4 219.868516 
z
" style="fill:#e99675;stroke:#595959;stroke-linejoin:miter;stroke-width:1.125;"/>
    </g>
    <g id="text_14">
     <!-- irr -->
     <defs>
      <path d="M 9.421875 54.6875 
L 18.40625 54.6875 
L 18.40625 0 
L 9.421875 0 
z
M 9.421875 75.984375 
L 18.40625 75.984375 
L 18.40625 64.59375 
L 9.421875 64.59375 
z
" id="DejaVuSans-105"/>
     </defs>
     <g style="fill:#262626;" transform="translate(110.6 231.418516)scale(0.165 -0.165)">
      <use xlink:href="#DejaVuSans-105"/>
      <use x="27.783203" xlink:href="#DejaVuSans-114"/>
      <use x="68.880859" xlink:href="#DejaVuSans-114"/>
     </g>
    </g>
   </g>
  </g>
  <g id="axes_2">
   <g id="patch_22">
    <path d="M 488.765278 249.7 
L 840.1375 249.7 
L 840.1375 19.8 
L 488.765278 19.8 
z
" style="fill:#ffffff;"/>
   </g>
   <g id="matplotlib.axis_3">
    <g id="xtick_6">
     <g id="text_15">
      <!-- 1 -->
      <g style="fill:#262626;" transform="translate(518.653437 274.737422)scale(0.165 -0.165)">
       <use xlink:href="#DejaVuSans-49"/>
      </g>
     </g>
    </g>
    <g id="xtick_7">
     <g id="text_16">
      <!-- 2 -->
      <g style="fill:#262626;" transform="translate(588.927882 274.737422)scale(0.165 -0.165)">
       <use xlink:href="#DejaVuSans-50"/>
      </g>
     </g>
    </g>
    <g id="xtick_8">
     <g id="text_17">
      <!-- 3 -->
      <g style="fill:#262626;" transform="translate(659.202326 274.737422)scale(0.165 -0.165)">
       <use xlink:href="#DejaVuSans-51"/>
      </g>
     </g>
    </g>
    <g id="xtick_9">
     <g id="text_18">
      <!-- 4 -->
      <g style="fill:#262626;" transform="translate(729.476771 274.737422)scale(0.165 -0.165)">
       <use xlink:href="#DejaVuSans-52"/>
      </g>
     </g>
    </g>
    <g id="xtick_10">
     <g id="text_19">
      <!-- 5 -->
      <g style="fill:#262626;" transform="translate(799.751215 274.737422)scale(0.165 -0.165)">
       <use xlink:href="#DejaVuSans-53"/>
      </g>
     </g>
    </g>
    <g id="text_20">
     <!-- block -->
     <g style="fill:#262626;" transform="translate(640.570451 295.846094)scale(0.18 -0.18)">
      <use xlink:href="#DejaVuSans-98"/>
      <use x="63.476562" xlink:href="#DejaVuSans-108"/>
      <use x="91.259766" xlink:href="#DejaVuSans-111"/>
      <use x="152.441406" xlink:href="#DejaVuSans-99"/>
      <use x="207.421875" xlink:href="#DejaVuSans-107"/>
     </g>
    </g>
   </g>
   <g id="matplotlib.axis_4">
    <g id="ytick_5">
     <g id="text_21">
      <!-- 0.00 -->
      <g style="fill:#262626;" transform="translate(439.526997 245.518711)scale(0.165 -0.165)">
       <use xlink:href="#DejaVuSans-48"/>
       <use x="63.623047" xlink:href="#DejaVuSans-46"/>
       <use x="95.410156" xlink:href="#DejaVuSans-48"/>
       <use x="159.033203" xlink:href="#DejaVuSans-48"/>
      </g>
     </g>
    </g>
    <g id="ytick_6">
     <g id="text_22">
      <!-- 0.05 -->
      <g style="fill:#262626;" transform="translate(439.526997 202.86565)scale(0.165 -0.165)">
       <use xlink:href="#DejaVuSans-48"/>
       <use x="63.623047" xlink:href="#DejaVuSans-46"/>
       <use x="95.410156" xlink:href="#DejaVuSans-48"/>
       <use x="159.033203" xlink:href="#DejaVuSans-53"/>
      </g>
     </g>
    </g>
    <g id="ytick_7">
     <g id="text_23">
      <!-- 0.10 -->
      <g style="fill:#262626;" transform="translate(439.526997 160.212588)scale(0.165 -0.165)">
       <use xlink:href="#DejaVuSans-48"/>
       <use x="63.623047" xlink:href="#DejaVuSans-46"/>
       <use x="95.410156" xlink:href="#DejaVuSans-49"/>
       <use x="159.033203" xlink:href="#DejaVuSans-48"/>
      </g>
     </g>
    </g>
    <g id="ytick_8">
     <g id="text_24">
      <!-- 0.15 -->
      <g style="fill:#262626;" transform="translate(439.526997 117.559527)scale(0.165 -0.165)">
       <use xlink:href="#DejaVuSans-48"/>
       <use x="63.623047" xlink:href="#DejaVuSans-46"/>
       <use x="95.410156" xlink:href="#DejaVuSans-49"/>
       <use x="159.033203" xlink:href="#DejaVuSans-53"/>
      </g>
     </g>
    </g>
    <g id="ytick_9">
     <g id="text_25">
      <!-- 0.20 -->
      <g style="fill:#262626;" transform="translate(439.526997 74.906466)scale(0.165 -0.165)">
       <use xlink:href="#DejaVuSans-48"/>
       <use x="63.623047" xlink:href="#DejaVuSans-46"/>
       <use x="95.410156" xlink:href="#DejaVuSans-50"/>
       <use x="159.033203" xlink:href="#DejaVuSans-48"/>
      </g>
     </g>
    </g>
    <g id="ytick_10">
     <g id="text_26">
      <!-- 0.25 -->
      <g style="fill:#262626;" transform="translate(439.526997 32.253405)scale(0.165 -0.165)">
       <use xlink:href="#DejaVuSans-48"/>
       <use x="63.623047" xlink:href="#DejaVuSans-46"/>
       <use x="95.410156" xlink:href="#DejaVuSans-50"/>
       <use x="159.033203" xlink:href="#DejaVuSans-53"/>
      </g>
     </g>
    </g>
    <g id="text_27">
     <!-- exploration prob. -->
     <defs>
      <path d="M 54.890625 54.6875 
L 35.109375 28.078125 
L 55.90625 0 
L 45.3125 0 
L 29.390625 21.484375 
L 13.484375 0 
L 2.875 0 
L 24.125 28.609375 
L 4.6875 54.6875 
L 15.28125 54.6875 
L 29.78125 35.203125 
L 44.28125 54.6875 
z
" id="DejaVuSans-120"/>
      <path d="M 18.3125 70.21875 
L 18.3125 54.6875 
L 36.8125 54.6875 
L 36.8125 47.703125 
L 18.3125 47.703125 
L 18.3125 18.015625 
Q 18.3125 11.328125 20.140625 9.421875 
Q 21.96875 7.515625 27.59375 7.515625 
L 36.8125 7.515625 
L 36.8125 0 
L 27.59375 0 
Q 17.1875 0 13.234375 3.875 
Q 9.28125 7.765625 9.28125 18.015625 
L 9.28125 47.703125 
L 2.6875 47.703125 
L 2.6875 54.6875 
L 9.28125 54.6875 
L 9.28125 70.21875 
z
" id="DejaVuSans-116"/>
      <path id="DejaVuSans-32"/>
     </defs>
     <g style="fill:#262626;" transform="translate(431.783559 212.140156)rotate(-90)scale(0.18 -0.18)">
      <use xlink:href="#DejaVuSans-101"/>
      <use x="61.507812" xlink:href="#DejaVuSans-120"/>
      <use x="120.6875" xlink:href="#DejaVuSans-112"/>
      <use x="184.164062" xlink:href="#DejaVuSans-108"/>
      <use x="211.947266" xlink:href="#DejaVuSans-111"/>
      <use x="273.128906" xlink:href="#DejaVuSans-114"/>
      <use x="314.242188" xlink:href="#DejaVuSans-97"/>
      <use x="375.521484" xlink:href="#DejaVuSans-116"/>
      <use x="414.730469" xlink:href="#DejaVuSans-105"/>
      <use x="442.513672" xlink:href="#DejaVuSans-111"/>
      <use x="503.695312" xlink:href="#DejaVuSans-110"/>
      <use x="567.074219" xlink:href="#DejaVuSans-32"/>
      <use x="598.861328" xlink:href="#DejaVuSans-112"/>
      <use x="662.337891" xlink:href="#DejaVuSans-114"/>
      <use x="703.419922" xlink:href="#DejaVuSans-111"/>
      <use x="764.601562" xlink:href="#DejaVuSans-98"/>
      <use x="828.078125" xlink:href="#DejaVuSans-46"/>
     </g>
    </g>
   </g>
   <g id="patch_23">
    <path clip-path="url(#p743a06d84c)" d="M 496.07382 136.882653 
L 523.621402 136.882653 
L 523.621402 115.556122 
L 496.07382 115.556122 
L 496.07382 136.882653 
z
" style="fill:#72b6a1;stroke:#595959;stroke-linejoin:miter;stroke-width:2.25;"/>
   </g>
   <g id="patch_24">
    <path clip-path="url(#p743a06d84c)" d="M 524.183598 124.086735 
L 551.73118 124.086735 
L 551.73118 107.02551 
L 524.183598 107.02551 
L 524.183598 124.086735 
z
" style="fill:#e99675;stroke:#595959;stroke-linejoin:miter;stroke-width:2.25;"/>
   </g>
   <g id="patch_25">
    <path clip-path="url(#p743a06d84c)" d="M 566.348264 141.147959 
L 593.895847 141.147959 
L 593.895847 107.02551 
L 566.348264 107.02551 
L 566.348264 141.147959 
z
" style="fill:#72b6a1;stroke:#595959;stroke-linejoin:miter;stroke-width:2.25;"/>
   </g>
   <g id="patch_26">
    <path clip-path="url(#p743a06d84c)" d="M 594.458042 111.290816 
L 622.005624 111.290816 
L 622.005624 81.433673 
L 594.458042 81.433673 
L 594.458042 111.290816 
z
" style="fill:#e99675;stroke:#595959;stroke-linejoin:miter;stroke-width:2.25;"/>
   </g>
   <g id="patch_27">
    <path clip-path="url(#p743a06d84c)" d="M 636.622709 145.413265 
L 664.170291 145.413265 
L 664.170291 124.086735 
L 636.622709 124.086735 
L 636.622709 145.413265 
z
" style="fill:#72b6a1;stroke:#595959;stroke-linejoin:miter;stroke-width:2.25;"/>
   </g>
   <g id="patch_28">
    <path clip-path="url(#p743a06d84c)" d="M 664.732487 115.556122 
L 692.280069 115.556122 
L 692.280069 94.229592 
L 664.732487 94.229592 
L 664.732487 115.556122 
z
" style="fill:#e99675;stroke:#595959;stroke-linejoin:miter;stroke-width:2.25;"/>
   </g>
   <g id="patch_29">
    <path clip-path="url(#p743a06d84c)" d="M 706.897153 141.147959 
L 734.444736 141.147959 
L 734.444736 115.556122 
L 706.897153 115.556122 
L 706.897153 141.147959 
z
" style="fill:#72b6a1;stroke:#595959;stroke-linejoin:miter;stroke-width:2.25;"/>
   </g>
   <g id="patch_30">
    <path clip-path="url(#p743a06d84c)" d="M 735.006931 132.617347 
L 762.554513 132.617347 
L 762.554513 94.229592 
L 735.006931 94.229592 
L 735.006931 132.617347 
z
" style="fill:#e99675;stroke:#595959;stroke-linejoin:miter;stroke-width:2.25;"/>
   </g>
   <g id="patch_31">
    <path clip-path="url(#p743a06d84c)" d="M 777.171598 119.821429 
L 804.71918 119.821429 
L 804.71918 81.433673 
L 777.171598 81.433673 
L 777.171598 119.821429 
z
" style="fill:#72b6a1;stroke:#595959;stroke-linejoin:miter;stroke-width:2.25;"/>
   </g>
   <g id="patch_32">
    <path clip-path="url(#p743a06d84c)" d="M 805.281376 119.821429 
L 832.828958 119.821429 
L 832.828958 77.168367 
L 805.281376 77.168367 
L 805.281376 119.821429 
z
" style="fill:#e99675;stroke:#595959;stroke-linejoin:miter;stroke-width:2.25;"/>
   </g>
   <g id="patch_33">
    <path clip-path="url(#p743a06d84c)" d="M 523.9025 239.25 
L 523.9025 239.25 
L 523.9025 239.25 
L 523.9025 239.25 
z
" style="fill:#72b6a1;stroke:#595959;stroke-linejoin:miter;stroke-width:1.125;"/>
   </g>
   <g id="patch_34">
    <path clip-path="url(#p743a06d84c)" d="M 523.9025 239.25 
L 523.9025 239.25 
L 523.9025 239.25 
L 523.9025 239.25 
z
" style="fill:#e99675;stroke:#595959;stroke-linejoin:miter;stroke-width:1.125;"/>
   </g>
   <g id="LineCollection_2">
    <path clip-path="url(#p743a06d84c)" d="M 769.863056 239.25 
L 769.863056 68.637755 
" style="fill:none;stroke:#1a1a1a;stroke-dasharray:8.325,3.6;stroke-dashoffset:0;stroke-width:2.25;"/>
   </g>
   <g id="line2d_61">
    <path clip-path="url(#p743a06d84c)" d="M 509.847611 136.882653 
L 509.847611 153.943878 
" style="fill:none;stroke:#595959;stroke-linecap:round;stroke-width:2.25;"/>
   </g>
   <g id="line2d_62">
    <path clip-path="url(#p743a06d84c)" d="M 509.847611 115.556122 
L 509.847611 85.69898 
" style="fill:none;stroke:#595959;stroke-linecap:round;stroke-width:2.25;"/>
   </g>
   <g id="line2d_63">
    <path clip-path="url(#p743a06d84c)" d="M 502.960716 153.943878 
L 516.734507 153.943878 
" style="fill:none;stroke:#595959;stroke-linecap:round;stroke-width:2.25;"/>
   </g>
   <g id="line2d_64">
    <path clip-path="url(#p743a06d84c)" d="M 502.960716 85.69898 
L 516.734507 85.69898 
" style="fill:none;stroke:#595959;stroke-linecap:round;stroke-width:2.25;"/>
   </g>
   <g id="line2d_65">
    <g clip-path="url(#p743a06d84c)">
     <use style="fill:#595959;stroke:#595959;stroke-linejoin:miter;" x="509.847611" xlink:href="#mf0ace4c87c" y="55.841837"/>
    </g>
   </g>
   <g id="line2d_66">
    <path clip-path="url(#p743a06d84c)" d="M 537.957389 124.086735 
L 537.957389 141.147959 
" style="fill:none;stroke:#595959;stroke-linecap:round;stroke-width:2.25;"/>
   </g>
   <g id="line2d_67">
    <path clip-path="url(#p743a06d84c)" d="M 537.957389 107.02551 
L 537.957389 85.69898 
" style="fill:none;stroke:#595959;stroke-linecap:round;stroke-width:2.25;"/>
   </g>
   <g id="line2d_68">
    <path clip-path="url(#p743a06d84c)" d="M 531.070493 141.147959 
L 544.844284 141.147959 
" style="fill:none;stroke:#595959;stroke-linecap:round;stroke-width:2.25;"/>
   </g>
   <g id="line2d_69">
    <path clip-path="url(#p743a06d84c)" d="M 531.070493 85.69898 
L 544.844284 85.69898 
" style="fill:none;stroke:#595959;stroke-linecap:round;stroke-width:2.25;"/>
   </g>
   <g id="line2d_70">
    <g clip-path="url(#p743a06d84c)">
     <use style="fill:#595959;stroke:#595959;stroke-linejoin:miter;" x="537.957389" xlink:href="#mf0ace4c87c" y="149.678571"/>
     <use style="fill:#595959;stroke:#595959;stroke-linejoin:miter;" x="537.957389" xlink:href="#mf0ace4c87c" y="77.168367"/>
    </g>
   </g>
   <g id="line2d_71">
    <path clip-path="url(#p743a06d84c)" d="M 580.122056 141.147959 
L 580.122056 149.678571 
" style="fill:none;stroke:#595959;stroke-linecap:round;stroke-width:2.25;"/>
   </g>
   <g id="line2d_72">
    <path clip-path="url(#p743a06d84c)" d="M 580.122056 107.02551 
L 580.122056 64.372449 
" style="fill:none;stroke:#595959;stroke-linecap:round;stroke-width:2.25;"/>
   </g>
   <g id="line2d_73">
    <path clip-path="url(#p743a06d84c)" d="M 573.23516 149.678571 
L 587.008951 149.678571 
" style="fill:none;stroke:#595959;stroke-linecap:round;stroke-width:2.25;"/>
   </g>
   <g id="line2d_74">
    <path clip-path="url(#p743a06d84c)" d="M 573.23516 64.372449 
L 587.008951 64.372449 
" style="fill:none;stroke:#595959;stroke-linecap:round;stroke-width:2.25;"/>
   </g>
   <g id="line2d_75"/>
   <g id="line2d_76">
    <path clip-path="url(#p743a06d84c)" d="M 608.231833 111.290816 
L 608.231833 145.413265 
" style="fill:none;stroke:#595959;stroke-linecap:round;stroke-width:2.25;"/>
   </g>
   <g id="line2d_77">
    <path clip-path="url(#p743a06d84c)" d="M 608.231833 81.433673 
L 608.231833 64.372449 
" style="fill:none;stroke:#595959;stroke-linecap:round;stroke-width:2.25;"/>
   </g>
   <g id="line2d_78">
    <path clip-path="url(#p743a06d84c)" d="M 601.344938 145.413265 
L 615.118729 145.413265 
" style="fill:none;stroke:#595959;stroke-linecap:round;stroke-width:2.25;"/>
   </g>
   <g id="line2d_79">
    <path clip-path="url(#p743a06d84c)" d="M 601.344938 64.372449 
L 615.118729 64.372449 
" style="fill:none;stroke:#595959;stroke-linecap:round;stroke-width:2.25;"/>
   </g>
   <g id="line2d_80"/>
   <g id="line2d_81">
    <path clip-path="url(#p743a06d84c)" d="M 650.3965 145.413265 
L 650.3965 158.209184 
" style="fill:none;stroke:#595959;stroke-linecap:round;stroke-width:2.25;"/>
   </g>
   <g id="line2d_82">
    <path clip-path="url(#p743a06d84c)" d="M 650.3965 124.086735 
L 650.3965 119.821429 
" style="fill:none;stroke:#595959;stroke-linecap:round;stroke-width:2.25;"/>
   </g>
   <g id="line2d_83">
    <path clip-path="url(#p743a06d84c)" d="M 643.509604 158.209184 
L 657.283396 158.209184 
" style="fill:none;stroke:#595959;stroke-linecap:round;stroke-width:2.25;"/>
   </g>
   <g id="line2d_84">
    <path clip-path="url(#p743a06d84c)" d="M 643.509604 119.821429 
L 657.283396 119.821429 
" style="fill:none;stroke:#595959;stroke-linecap:round;stroke-width:2.25;"/>
   </g>
   <g id="line2d_85">
    <g clip-path="url(#p743a06d84c)">
     <use style="fill:#595959;stroke:#595959;stroke-linejoin:miter;" x="650.3965" xlink:href="#mf0ace4c87c" y="81.433673"/>
    </g>
   </g>
   <g id="line2d_86">
    <path clip-path="url(#p743a06d84c)" d="M 678.506278 115.556122 
L 678.506278 141.147959 
" style="fill:none;stroke:#595959;stroke-linecap:round;stroke-width:2.25;"/>
   </g>
   <g id="line2d_87">
    <path clip-path="url(#p743a06d84c)" d="M 678.506278 94.229592 
L 678.506278 72.903061 
" style="fill:none;stroke:#595959;stroke-linecap:round;stroke-width:2.25;"/>
   </g>
   <g id="line2d_88">
    <path clip-path="url(#p743a06d84c)" d="M 671.619382 141.147959 
L 685.393173 141.147959 
" style="fill:none;stroke:#595959;stroke-linecap:round;stroke-width:2.25;"/>
   </g>
   <g id="line2d_89">
    <path clip-path="url(#p743a06d84c)" d="M 671.619382 72.903061 
L 685.393173 72.903061 
" style="fill:none;stroke:#595959;stroke-linecap:round;stroke-width:2.25;"/>
   </g>
   <g id="line2d_90">
    <g clip-path="url(#p743a06d84c)">
     <use style="fill:#595959;stroke:#595959;stroke-linejoin:miter;" x="678.506278" xlink:href="#mf0ace4c87c" y="51.576531"/>
    </g>
   </g>
   <g id="line2d_91">
    <path clip-path="url(#p743a06d84c)" d="M 720.670944 141.147959 
L 720.670944 175.270408 
" style="fill:none;stroke:#595959;stroke-linecap:round;stroke-width:2.25;"/>
   </g>
   <g id="line2d_92">
    <path clip-path="url(#p743a06d84c)" d="M 720.670944 115.556122 
L 720.670944 85.69898 
" style="fill:none;stroke:#595959;stroke-linecap:round;stroke-width:2.25;"/>
   </g>
   <g id="line2d_93">
    <path clip-path="url(#p743a06d84c)" d="M 713.784049 175.270408 
L 727.55784 175.270408 
" style="fill:none;stroke:#595959;stroke-linecap:round;stroke-width:2.25;"/>
   </g>
   <g id="line2d_94">
    <path clip-path="url(#p743a06d84c)" d="M 713.784049 85.69898 
L 727.55784 85.69898 
" style="fill:none;stroke:#595959;stroke-linecap:round;stroke-width:2.25;"/>
   </g>
   <g id="line2d_95"/>
   <g id="line2d_96">
    <path clip-path="url(#p743a06d84c)" d="M 748.780722 132.617347 
L 748.780722 149.678571 
" style="fill:none;stroke:#595959;stroke-linecap:round;stroke-width:2.25;"/>
   </g>
   <g id="line2d_97">
    <path clip-path="url(#p743a06d84c)" d="M 748.780722 94.229592 
L 748.780722 55.841837 
" style="fill:none;stroke:#595959;stroke-linecap:round;stroke-width:2.25;"/>
   </g>
   <g id="line2d_98">
    <path clip-path="url(#p743a06d84c)" d="M 741.893827 149.678571 
L 755.667618 149.678571 
" style="fill:none;stroke:#595959;stroke-linecap:round;stroke-width:2.25;"/>
   </g>
   <g id="line2d_99">
    <path clip-path="url(#p743a06d84c)" d="M 741.893827 55.841837 
L 755.667618 55.841837 
" style="fill:none;stroke:#595959;stroke-linecap:round;stroke-width:2.25;"/>
   </g>
   <g id="line2d_100"/>
   <g id="line2d_101">
    <path clip-path="url(#p743a06d84c)" d="M 790.945389 119.821429 
L 790.945389 141.147959 
" style="fill:none;stroke:#595959;stroke-linecap:round;stroke-width:2.25;"/>
   </g>
   <g id="line2d_102">
    <path clip-path="url(#p743a06d84c)" d="M 790.945389 81.433673 
L 790.945389 30.25 
" style="fill:none;stroke:#595959;stroke-linecap:round;stroke-width:2.25;"/>
   </g>
   <g id="line2d_103">
    <path clip-path="url(#p743a06d84c)" d="M 784.058493 141.147959 
L 797.832284 141.147959 
" style="fill:none;stroke:#595959;stroke-linecap:round;stroke-width:2.25;"/>
   </g>
   <g id="line2d_104">
    <path clip-path="url(#p743a06d84c)" d="M 784.058493 30.25 
L 797.832284 30.25 
" style="fill:none;stroke:#595959;stroke-linecap:round;stroke-width:2.25;"/>
   </g>
   <g id="line2d_105"/>
   <g id="line2d_106">
    <path clip-path="url(#p743a06d84c)" d="M 819.055167 119.821429 
L 819.055167 132.617347 
" style="fill:none;stroke:#595959;stroke-linecap:round;stroke-width:2.25;"/>
   </g>
   <g id="line2d_107">
    <path clip-path="url(#p743a06d84c)" d="M 819.055167 77.168367 
L 819.055167 51.576531 
" style="fill:none;stroke:#595959;stroke-linecap:round;stroke-width:2.25;"/>
   </g>
   <g id="line2d_108">
    <path clip-path="url(#p743a06d84c)" d="M 812.168271 132.617347 
L 825.942062 132.617347 
" style="fill:none;stroke:#595959;stroke-linecap:round;stroke-width:2.25;"/>
   </g>
   <g id="line2d_109">
    <path clip-path="url(#p743a06d84c)" d="M 812.168271 51.576531 
L 825.942062 51.576531 
" style="fill:none;stroke:#595959;stroke-linecap:round;stroke-width:2.25;"/>
   </g>
   <g id="line2d_110"/>
   <g id="line2d_111">
    <path clip-path="url(#p743a06d84c)" d="M 496.07382 119.821429 
L 523.621402 119.821429 
" style="fill:none;stroke:#595959;stroke-linecap:round;stroke-width:2.25;"/>
   </g>
   <g id="line2d_112">
    <path clip-path="url(#p743a06d84c)" d="M 524.183598 119.821429 
L 551.73118 119.821429 
" style="fill:none;stroke:#595959;stroke-linecap:round;stroke-width:2.25;"/>
   </g>
   <g id="line2d_113">
    <path clip-path="url(#p743a06d84c)" d="M 566.348264 119.821429 
L 593.895847 119.821429 
" style="fill:none;stroke:#595959;stroke-linecap:round;stroke-width:2.25;"/>
   </g>
   <g id="line2d_114">
    <path clip-path="url(#p743a06d84c)" d="M 594.458042 94.229592 
L 622.005624 94.229592 
" style="fill:none;stroke:#595959;stroke-linecap:round;stroke-width:2.25;"/>
   </g>
   <g id="line2d_115">
    <path clip-path="url(#p743a06d84c)" d="M 636.622709 132.617347 
L 664.170291 132.617347 
" style="fill:none;stroke:#595959;stroke-linecap:round;stroke-width:2.25;"/>
   </g>
   <g id="line2d_116">
    <path clip-path="url(#p743a06d84c)" d="M 664.732487 111.290816 
L 692.280069 111.290816 
" style="fill:none;stroke:#595959;stroke-linecap:round;stroke-width:2.25;"/>
   </g>
   <g id="line2d_117">
    <path clip-path="url(#p743a06d84c)" d="M 706.897153 124.086735 
L 734.444736 124.086735 
" style="fill:none;stroke:#595959;stroke-linecap:round;stroke-width:2.25;"/>
   </g>
   <g id="line2d_118">
    <path clip-path="url(#p743a06d84c)" d="M 735.006931 107.02551 
L 762.554513 107.02551 
" style="fill:none;stroke:#595959;stroke-linecap:round;stroke-width:2.25;"/>
   </g>
   <g id="line2d_119">
    <path clip-path="url(#p743a06d84c)" d="M 777.171598 98.494898 
L 804.71918 98.494898 
" style="fill:none;stroke:#595959;stroke-linecap:round;stroke-width:2.25;"/>
   </g>
   <g id="line2d_120">
    <path clip-path="url(#p743a06d84c)" d="M 805.281376 89.964286 
L 832.828958 89.964286 
" style="fill:none;stroke:#595959;stroke-linecap:round;stroke-width:2.25;"/>
   </g>
   <g id="patch_35">
    <path d="M 488.765278 249.7 
L 488.765278 19.8 
" style="fill:none;stroke:#262626;stroke-linecap:square;stroke-linejoin:miter;stroke-width:1.875;"/>
   </g>
   <g id="patch_36">
    <path d="M 840.1375 249.7 
L 840.1375 19.8 
" style="fill:none;stroke:#262626;stroke-linecap:square;stroke-linejoin:miter;stroke-width:1.875;"/>
   </g>
   <g id="patch_37">
    <path d="M 488.765278 249.7 
L 840.1375 249.7 
" style="fill:none;stroke:#262626;stroke-linecap:square;stroke-linejoin:miter;stroke-width:1.875;"/>
   </g>
   <g id="patch_38">
    <path d="M 488.765278 19.8 
L 840.1375 19.8 
" style="fill:none;stroke:#262626;stroke-linecap:square;stroke-linejoin:miter;stroke-width:1.875;"/>
   </g>
   <g id="legend_2">
    <g id="patch_39">
     <path d="M 748.382031 241.45 
L 828.5875 241.45 
Q 831.8875 241.45 831.8875 238.15 
L 831.8875 168.304656 
Q 831.8875 165.004656 828.5875 165.004656 
L 748.382031 165.004656 
Q 745.082031 165.004656 745.082031 168.304656 
L 745.082031 238.15 
Q 745.082031 241.45 748.382031 241.45 
z
" style="fill:#ffffff;opacity:0.8;stroke:#cccccc;stroke-linejoin:miter;stroke-width:1.5;"/>
    </g>
    <g id="text_28">
     <!-- order -->
     <g style="fill:#262626;" transform="translate(767.951688 183.230266)scale(0.153 -0.153)">
      <use xlink:href="#DejaVuSans-111"/>
      <use x="61.181641" xlink:href="#DejaVuSans-114"/>
      <use x="102.279297" xlink:href="#DejaVuSans-100"/>
      <use x="165.755859" xlink:href="#DejaVuSans-101"/>
      <use x="227.279297" xlink:href="#DejaVuSans-114"/>
     </g>
    </g>
    <g id="patch_40">
     <path d="M 751.682031 207.199609 
L 784.682031 207.199609 
L 784.682031 195.649609 
L 751.682031 195.649609 
z
" style="fill:#72b6a1;stroke:#595959;stroke-linejoin:miter;stroke-width:1.125;"/>
    </g>
    <g id="text_29">
     <!-- reg -->
     <g style="fill:#262626;" transform="translate(797.882031 207.199609)scale(0.165 -0.165)">
      <use xlink:href="#DejaVuSans-114"/>
      <use x="41.082031" xlink:href="#DejaVuSans-101"/>
      <use x="102.605469" xlink:href="#DejaVuSans-103"/>
     </g>
    </g>
    <g id="patch_41">
     <path d="M 751.682031 231.418516 
L 784.682031 231.418516 
L 784.682031 219.868516 
L 751.682031 219.868516 
z
" style="fill:#e99675;stroke:#595959;stroke-linejoin:miter;stroke-width:1.125;"/>
    </g>
    <g id="text_30">
     <!-- irr -->
     <g style="fill:#262626;" transform="translate(797.882031 231.418516)scale(0.165 -0.165)">
      <use xlink:href="#DejaVuSans-105"/>
      <use x="27.783203" xlink:href="#DejaVuSans-114"/>
      <use x="68.880859" xlink:href="#DejaVuSans-114"/>
     </g>
    </g>
   </g>
  </g>
 </g>
 <defs>
  <clipPath id="pb5a3a52f14">
   <rect height="229.9" width="351.372222" x="49.55" y="19.8"/>
  </clipPath>
  <clipPath id="p743a06d84c">
   <rect height="229.9" width="351.372222" x="488.765278" y="19.8"/>
  </clipPath>
 </defs>
</svg>
